<?xml version="1.0" encoding="utf-8"?>
<!-- Generator: Adobe Illustrator 16.0.3, SVG Export Plug-In . SVG Version: 6.00 Build 0)  -->
<!DOCTYPE svg PUBLIC "-//W3C//DTD SVG 1.1//EN" "http://www.w3.org/Graphics/SVG/1.1/DTD/svg11.dtd">
<svg version="1.1" id="Layer_1" xmlns="http://www.w3.org/2000/svg" xmlns:xlink="http://www.w3.org/1999/xlink" x="0px" y="0px"
	 width="272.55px" height="53.633px" viewBox="0 0 272.55 53.633" enable-background="new 0 0 272.55 53.633" xml:space="preserve">
<g>
	<rect x="1.758" y="8.068" fill="none" width="270.792" height="45.565"/>
	<path d="M36.141,31.535c0.047,0.082,0.07,0.182,0.07,0.299c0,0.176-0.062,0.328-0.185,0.457s-0.284,0.193-0.483,0.193
		c-0.129,0-0.243-0.029-0.343-0.088s-0.179-0.146-0.237-0.264c-0.223-0.434-0.419-0.976-0.589-1.626s-0.316-1.374-0.439-2.171
		s-0.223-1.655-0.299-2.575s-0.138-1.872-0.185-2.856c-0.879,0.117-1.866,0.246-2.962,0.387s-2.347,0.305-3.753,0.492
		c-0.984,0.141-1.986,0.264-3.006,0.369c-2.508,2.73-5.147,4.802-7.919,6.214s-5.552,2.118-8.341,2.118
		c-1.242,0-2.317-0.12-3.226-0.36s-1.658-0.51-2.25-0.809s-1.037-0.577-1.336-0.835s-0.46-0.398-0.483-0.422
		C0.059,29.941,0,29.789,0,29.602s0.064-0.346,0.193-0.475s0.281-0.193,0.457-0.193c0.199,0,0.363,0.07,0.492,0.211
		c0.023,0.023,0.164,0.144,0.422,0.36s0.642,0.448,1.151,0.694s1.157,0.469,1.942,0.668s1.717,0.299,2.795,0.299
		c1.477,0,2.889-0.199,4.236-0.598s2.622-0.917,3.823-1.556s2.32-1.368,3.357-2.188s1.978-1.652,2.821-2.496
		c-0.832,0.07-1.658,0.123-2.479,0.158s-1.629,0.053-2.426,0.053c-1.57,0-3.064-0.088-4.482-0.264s-2.666-0.472-3.744-0.888
		s-1.937-0.97-2.575-1.661s-0.958-1.553-0.958-2.584c0-0.469,0.097-0.938,0.29-1.406s0.425-0.894,0.694-1.274
		s0.551-0.691,0.844-0.932s0.545-0.36,0.756-0.36c0.164,0,0.316,0.059,0.457,0.176s0.211,0.275,0.211,0.475
		c0,0.105-0.023,0.208-0.07,0.308s-0.117,0.179-0.211,0.237c-0.023,0.023-0.123,0.105-0.299,0.246s-0.363,0.331-0.563,0.571
		s-0.381,0.527-0.545,0.861s-0.246,0.694-0.246,1.081c0,0.668,0.231,1.257,0.694,1.767s1.137,0.938,2.021,1.283
		s1.972,0.606,3.261,0.782s2.76,0.264,4.412,0.264c0.949,0,1.951-0.029,3.006-0.088s2.168-0.146,3.34-0.264
		c0.563-0.621,1.061-1.207,1.494-1.758s0.803-1.043,1.107-1.477c0.504-0.715,1.031-1.477,1.582-2.285s1.099-1.629,1.644-2.461
		s1.078-1.655,1.6-2.47s1.011-1.582,1.468-2.303s0.867-1.377,1.23-1.969s0.662-1.081,0.896-1.468c0.07-0.316,0.176-0.606,0.316-0.87
		s0.369-0.396,0.686-0.396c0.176,0,0.346,0.073,0.51,0.22s0.246,0.331,0.246,0.554c0,0.164-0.059,0.34-0.176,0.527
		s-0.229,0.346-0.334,0.475c-0.035,0.223-0.091,0.697-0.167,1.424s-0.152,1.614-0.229,2.663s-0.141,2.203-0.193,3.463
		s-0.079,2.534-0.079,3.823c0,0.48,0,0.955,0,1.424s0.012,0.943,0.035,1.424c1.758-0.223,3.041-0.378,3.85-0.466
		s1.236-0.132,1.283-0.132c0.152,0,0.302,0.062,0.448,0.185s0.22,0.284,0.22,0.483c0,0.164-0.056,0.308-0.167,0.431
		s-0.255,0.196-0.431,0.22c-0.211,0.023-0.457,0.053-0.738,0.088s-0.627,0.076-1.037,0.123s-0.891,0.103-1.441,0.167
		s-1.195,0.144-1.934,0.237c0.035,0.961,0.091,1.884,0.167,2.769s0.17,1.708,0.281,2.47s0.243,1.447,0.396,2.057
		S35.941,31.148,36.141,31.535z M26.561,22.465c1.383-0.188,2.64-0.354,3.771-0.501s2.153-0.278,3.067-0.396
		c-0.012-0.504-0.021-1.008-0.026-1.512s-0.009-1.014-0.009-1.529c0-1.652,0.029-3.231,0.088-4.737s0.141-2.815,0.246-3.929
		c-0.469,0.738-0.987,1.556-1.556,2.452s-1.157,1.811-1.767,2.742s-1.225,1.854-1.846,2.769s-1.213,1.77-1.775,2.566
		c-0.281,0.398-0.568,0.785-0.861,1.16s-0.586,0.744-0.879,1.107c0.258-0.023,0.513-0.053,0.765-0.088S26.291,22.5,26.561,22.465z"
		/>
	<path d="M43.857,30.041c0.188-0.387,0.404-0.812,0.65-1.274s0.51-0.932,0.791-1.406s0.577-0.946,0.888-1.415
		s0.636-0.914,0.976-1.336c0.34-0.41,0.683-0.706,1.028-0.888s0.671-0.272,0.976-0.272c0.609,0,1.061,0.223,1.354,0.668
		s0.439,0.996,0.439,1.652c0,0.152-0.009,0.337-0.026,0.554s-0.035,0.448-0.053,0.694s-0.035,0.495-0.053,0.747
		s-0.026,0.489-0.026,0.712c0,0.281,0.015,0.551,0.044,0.809s0.085,0.483,0.167,0.677s0.199,0.346,0.352,0.457
		s0.352,0.167,0.598,0.167c0.445,0,0.879-0.173,1.301-0.519s0.812-0.756,1.169-1.23s0.668-0.958,0.932-1.45s0.46-0.891,0.589-1.195
		c0.059-0.129,0.144-0.229,0.255-0.299s0.231-0.105,0.36-0.105c0.199,0,0.36,0.073,0.483,0.22s0.185,0.302,0.185,0.466
		c0,0.082-0.018,0.164-0.053,0.246c-0.047,0.094-0.141,0.287-0.281,0.58s-0.325,0.63-0.554,1.011s-0.495,0.785-0.8,1.213
		s-0.642,0.817-1.011,1.169s-0.768,0.645-1.195,0.879s-0.876,0.352-1.345,0.352c-0.527,0-0.955-0.103-1.283-0.308
		s-0.586-0.475-0.773-0.809s-0.313-0.703-0.378-1.107s-0.097-0.812-0.097-1.222c0-0.176,0.009-0.375,0.026-0.598
		s0.041-0.457,0.07-0.703s0.053-0.492,0.07-0.738s0.026-0.48,0.026-0.703c0-0.375-0.059-0.63-0.176-0.765s-0.223-0.202-0.316-0.202
		c-0.188,0-0.401,0.108-0.642,0.325s-0.492,0.501-0.756,0.853s-0.533,0.747-0.809,1.187s-0.533,0.876-0.773,1.31
		s-0.463,0.847-0.668,1.239s-0.366,0.718-0.483,0.976c-0.234,0.492-0.469,0.823-0.703,0.993s-0.475,0.255-0.721,0.255
		c-0.34,0-0.612-0.103-0.817-0.308s-0.308-0.495-0.308-0.87c0-0.082,0.012-0.243,0.035-0.483s0.053-0.527,0.088-0.861
		s0.07-0.694,0.105-1.081s0.07-0.771,0.105-1.151s0.064-0.735,0.088-1.063s0.035-0.604,0.035-0.826c0-0.293-0.012-0.574-0.035-0.844
		s-0.07-0.434-0.141-0.492c-0.105,0.035-0.293,0.255-0.563,0.659s-0.615,1.116-1.037,2.136c-0.059,0.129-0.146,0.229-0.264,0.299
		s-0.24,0.105-0.369,0.105c-0.199,0-0.357-0.067-0.475-0.202s-0.176-0.29-0.176-0.466c0-0.082,0.018-0.17,0.053-0.264
		c0.527-1.254,1.022-2.177,1.485-2.769s0.923-0.888,1.38-0.888c0.27,0,0.498,0.067,0.686,0.202s0.337,0.313,0.448,0.536
		s0.193,0.469,0.246,0.738s0.079,0.545,0.079,0.826c0,0.211-0.015,0.539-0.044,0.984s-0.067,0.923-0.114,1.433
		s-0.091,1.017-0.132,1.521S43.893,29.701,43.857,30.041z"/>
	<path d="M62.789,26.508c0.574,2.707,1.406,4.061,2.496,4.061c0.422,0,0.826-0.155,1.213-0.466s0.747-0.691,1.081-1.143
		s0.63-0.929,0.888-1.433s0.469-0.943,0.633-1.318c0.117-0.281,0.322-0.422,0.615-0.422c0.188,0,0.346,0.07,0.475,0.211
		s0.193,0.293,0.193,0.457c0,0.094-0.018,0.176-0.053,0.246c-0.082,0.199-0.202,0.466-0.36,0.8s-0.352,0.691-0.58,1.072
		s-0.483,0.771-0.765,1.169s-0.592,0.756-0.932,1.072s-0.7,0.577-1.081,0.782s-0.782,0.308-1.204,0.308
		c-0.785,0-1.459-0.272-2.021-0.817s-1.049-1.444-1.459-2.698c-0.563,1.195-1.131,2.063-1.705,2.602s-1.195,0.809-1.863,0.809
		c-0.352,0-0.691-0.056-1.02-0.167s-0.615-0.296-0.861-0.554s-0.445-0.589-0.598-0.993s-0.229-0.899-0.229-1.485
		c0-0.809,0.141-1.553,0.422-2.232s0.645-1.263,1.09-1.749s0.94-0.864,1.485-1.134s1.087-0.404,1.626-0.404
		c0.176,0,0.328,0.062,0.457,0.185s0.193,0.278,0.193,0.466c0,0.164-0.053,0.311-0.158,0.439s-0.246,0.205-0.422,0.229
		c-0.352,0.047-0.727,0.158-1.125,0.334s-0.765,0.431-1.099,0.765s-0.609,0.759-0.826,1.274s-0.325,1.131-0.325,1.846
		c0,0.586,0.12,1.043,0.36,1.371s0.589,0.492,1.046,0.492c0.188,0,0.387-0.05,0.598-0.149s0.437-0.296,0.677-0.589
		s0.504-0.709,0.791-1.248s0.606-1.248,0.958-2.127c-0.199-1.031-0.381-2.221-0.545-3.568s-0.246-2.854-0.246-4.518
		c0-0.727,0.023-1.485,0.07-2.276s0.123-1.564,0.229-2.32s0.246-1.474,0.422-2.153s0.39-1.277,0.642-1.793s0.548-0.923,0.888-1.222
		s0.727-0.448,1.16-0.448c0.387,0,0.715,0.105,0.984,0.316s0.489,0.504,0.659,0.879s0.296,0.826,0.378,1.354s0.123,1.107,0.123,1.74
		c0,1.359-0.117,2.719-0.352,4.078s-0.524,2.66-0.87,3.902s-0.712,2.391-1.099,3.445S63.105,25.746,62.789,26.508z M64.846,12.34
		c0-0.293-0.009-0.609-0.026-0.949s-0.059-0.659-0.123-0.958s-0.149-0.548-0.255-0.747s-0.246-0.299-0.422-0.299
		c-0.293,0-0.565,0.258-0.817,0.773s-0.472,1.192-0.659,2.03s-0.337,1.787-0.448,2.848s-0.167,2.13-0.167,3.208
		c0,1.031,0.041,2.063,0.123,3.094s0.176,1.951,0.281,2.76c0.34-0.902,0.662-1.831,0.967-2.786s0.571-1.931,0.8-2.927
		s0.41-2.001,0.545-3.015S64.846,13.348,64.846,12.34z"/>
	<path d="M70.963,24.398c-0.047,0.316-0.105,0.612-0.176,0.888s-0.138,0.516-0.202,0.721s-0.12,0.372-0.167,0.501
		s-0.076,0.199-0.088,0.211c-0.117,0.27-0.322,0.404-0.615,0.404c-0.164,0-0.316-0.062-0.457-0.185s-0.211-0.278-0.211-0.466
		c0-0.07,0.012-0.123,0.035-0.158s0.059-0.105,0.105-0.211s0.105-0.281,0.176-0.527s0.158-0.627,0.264-1.143
		c-0.199,0-0.404-0.006-0.615-0.018s-0.407-0.053-0.589-0.123s-0.331-0.182-0.448-0.334s-0.176-0.363-0.176-0.633
		c0-0.199,0.056-0.469,0.167-0.809s0.261-0.674,0.448-1.002s0.398-0.612,0.633-0.853s0.469-0.36,0.703-0.36
		c0.27,0,0.489,0.1,0.659,0.299s0.302,0.442,0.396,0.729s0.161,0.589,0.202,0.905s0.062,0.592,0.062,0.826
		c0.199,0,0.396-0.003,0.589-0.009s0.378-0.009,0.554-0.009c0.668,0,1.178,0.146,1.529,0.439s0.527,0.773,0.527,1.441
		c0,0.27-0.018,0.551-0.053,0.844s-0.076,0.595-0.123,0.905s-0.088,0.618-0.123,0.923s-0.053,0.604-0.053,0.896
		c0,0.422,0.059,0.771,0.176,1.046s0.264,0.495,0.439,0.659s0.363,0.278,0.563,0.343s0.381,0.097,0.545,0.097
		c0.504,0,0.979-0.164,1.424-0.492s0.855-0.724,1.23-1.187s0.712-0.952,1.011-1.468s0.548-0.967,0.747-1.354
		c0.059-0.105,0.141-0.188,0.246-0.246s0.217-0.088,0.334-0.088c0.211,0,0.375,0.067,0.492,0.202s0.176,0.284,0.176,0.448
		c0,0.117-0.023,0.223-0.07,0.316c-0.27,0.48-0.583,1.022-0.94,1.626s-0.765,1.169-1.222,1.696s-0.97,0.973-1.538,1.336
		s-1.192,0.545-1.872,0.545c-0.422,0-0.82-0.079-1.195-0.237s-0.7-0.387-0.976-0.686s-0.495-0.668-0.659-1.107
		s-0.246-0.935-0.246-1.485c0-0.586,0.059-1.169,0.176-1.749s0.176-1.134,0.176-1.661c0-0.223-0.05-0.39-0.149-0.501
		s-0.319-0.167-0.659-0.167c-0.164,0-0.343,0-0.536,0S71.186,24.387,70.963,24.398z M69.785,23.098c0-0.082-0.003-0.19-0.009-0.325
		s-0.018-0.267-0.035-0.396s-0.041-0.24-0.07-0.334s-0.062-0.141-0.097-0.141s-0.079,0.044-0.132,0.132s-0.108,0.193-0.167,0.316
		s-0.111,0.255-0.158,0.396s-0.082,0.258-0.105,0.352H69.785z"/>
	<path d="M82.143,29.689c0.246,0.34,0.563,0.612,0.949,0.817s0.861,0.308,1.424,0.308c0.574,0,1.096-0.138,1.564-0.413
		s0.896-0.636,1.283-1.081s0.732-0.943,1.037-1.494s0.58-1.102,0.826-1.652c0.059-0.129,0.141-0.226,0.246-0.29
		s0.223-0.097,0.352-0.097c0.199,0,0.36,0.07,0.483,0.211s0.185,0.293,0.185,0.457c0,0.059-0.006,0.108-0.018,0.149
		s-0.029,0.085-0.053,0.132c-0.809,1.781-1.69,3.123-2.646,4.025s-2.036,1.365-3.243,1.389c-0.773,0-1.441-0.149-2.004-0.448
		s-1.025-0.686-1.389-1.16s-0.633-1.011-0.809-1.608s-0.264-1.195-0.264-1.793s0.073-1.148,0.22-1.652s0.357-0.943,0.633-1.318
		s0.604-0.668,0.984-0.879s0.8-0.316,1.257-0.316c0.27,0,0.536,0.056,0.8,0.167s0.501,0.27,0.712,0.475s0.381,0.454,0.51,0.747
		s0.193,0.627,0.193,1.002c0,0.48-0.082,0.932-0.246,1.354s-0.39,0.814-0.677,1.178s-0.63,0.697-1.028,1.002
		S82.6,29.467,82.143,29.689z M81.615,28.547c0.363-0.152,0.694-0.346,0.993-0.58s0.554-0.492,0.765-0.773s0.375-0.577,0.492-0.888
		s0.176-0.624,0.176-0.94c0-0.352-0.088-0.618-0.264-0.8s-0.381-0.272-0.615-0.272c-0.316,0-0.586,0.088-0.809,0.264
		s-0.404,0.404-0.545,0.686s-0.243,0.595-0.308,0.94s-0.097,0.688-0.097,1.028c0,0.211,0.021,0.434,0.062,0.668
		S81.557,28.336,81.615,28.547z"/>
	<path d="M101.549,26.736c-0.035,0.609-0.117,1.222-0.246,1.837s-0.331,1.169-0.606,1.661s-0.636,0.894-1.081,1.204
		s-0.996,0.466-1.652,0.466c-0.41,0-0.771-0.062-1.081-0.185s-0.58-0.287-0.809-0.492s-0.419-0.439-0.571-0.703
		s-0.281-0.542-0.387-0.835c-0.41,0.68-0.894,1.204-1.45,1.573s-1.11,0.554-1.661,0.554c-0.445,0-0.847-0.082-1.204-0.246
		s-0.662-0.396-0.914-0.694s-0.448-0.659-0.589-1.081s-0.211-0.896-0.211-1.424c0-0.879,0.079-1.638,0.237-2.276
		s0.334-1.163,0.527-1.573s0.454-0.82,0.782-1.23c0.059-0.07,0.132-0.123,0.22-0.158s0.179-0.053,0.272-0.053
		c0.188,0,0.343,0.067,0.466,0.202s0.185,0.29,0.185,0.466c0,0.129-0.047,0.27-0.141,0.422c-0.047,0.07-0.138,0.205-0.272,0.404
		s-0.272,0.469-0.413,0.809s-0.267,0.756-0.378,1.248s-0.167,1.072-0.167,1.74c0,0.691,0.141,1.216,0.422,1.573
		s0.674,0.536,1.178,0.536c0.246,0,0.516-0.067,0.809-0.202s0.568-0.343,0.826-0.624s0.48-0.639,0.668-1.072
		s0.305-0.943,0.352-1.529l0.229-3.023c0.012-0.176,0.085-0.322,0.22-0.439s0.29-0.176,0.466-0.176c0.199,0,0.357,0.073,0.475,0.22
		s0.176,0.313,0.176,0.501l-0.193,2.9c-0.035,0.621-0.015,1.154,0.062,1.6s0.202,0.812,0.378,1.099s0.393,0.498,0.65,0.633
		s0.545,0.202,0.861,0.202c0.422,0,0.779-0.123,1.072-0.369s0.527-0.58,0.703-1.002s0.302-0.911,0.378-1.468
		s0.114-1.146,0.114-1.767c0-0.738-0.041-1.354-0.123-1.846s-0.123-0.82-0.123-0.984c0-0.176,0.064-0.331,0.193-0.466
		s0.287-0.202,0.475-0.202c0.164,0,0.305,0.05,0.422,0.149s0.193,0.231,0.229,0.396c0.012,0.047,0.047,0.182,0.105,0.404
		s0.141,0.489,0.246,0.8s0.243,0.639,0.413,0.984s0.375,0.665,0.615,0.958s0.516,0.536,0.826,0.729s0.665,0.29,1.063,0.29
		c0.223,0,0.413-0.044,0.571-0.132s0.29-0.19,0.396-0.308s0.185-0.229,0.237-0.334s0.085-0.17,0.097-0.193
		c0.059-0.129,0.144-0.231,0.255-0.308s0.231-0.114,0.36-0.114c0.199,0,0.36,0.073,0.483,0.22s0.185,0.302,0.185,0.466
		c0,0.141-0.062,0.328-0.185,0.563s-0.296,0.46-0.519,0.677s-0.495,0.404-0.817,0.563s-0.677,0.237-1.063,0.237
		c-0.34,0-0.656-0.05-0.949-0.149s-0.565-0.231-0.817-0.396s-0.483-0.352-0.694-0.563S101.725,26.971,101.549,26.736z"/>
	<path d="M131.01,8.367c-0.34,0.984-0.627,2.112-0.861,3.384s-0.352,2.669-0.352,4.192c0,1.078,0.035,2.168,0.105,3.27
		s0.129,2.285,0.176,3.551c0.281-0.152,0.527-0.229,0.738-0.229c0.164,0,0.311,0.056,0.439,0.167s0.193,0.255,0.193,0.431
		c0,0.258-0.117,0.448-0.352,0.571s-0.568,0.278-1.002,0.466v1.529c0,2.672-0.155,5.124-0.466,7.356s-0.812,4.154-1.503,5.766
		s-1.603,2.868-2.733,3.771s-2.511,1.354-4.14,1.354c-0.691,0-1.371-0.132-2.039-0.396s-1.263-0.665-1.784-1.204
		s-0.943-1.21-1.266-2.013s-0.483-1.743-0.483-2.821c0-1.184,0.22-2.312,0.659-3.384s1.02-2.08,1.74-3.023s1.544-1.816,2.47-2.619
		s1.872-1.532,2.839-2.188s1.919-1.23,2.856-1.723s1.775-0.896,2.514-1.213c-0.023-1.207-0.076-2.417-0.158-3.63
		s-0.123-2.458-0.123-3.735c0-1.195,0.073-2.347,0.22-3.454s0.349-2.142,0.606-3.103c-0.457,0.258-0.958,0.498-1.503,0.721
		s-1.116,0.434-1.714,0.633s-1.21,0.393-1.837,0.58s-1.245,0.369-1.854,0.545c-0.926,0.27-1.767,0.565-2.522,0.888
		s-1.403,0.694-1.942,1.116s-0.958,0.902-1.257,1.441s-0.448,1.16-0.448,1.863c0,0.82,0.158,1.518,0.475,2.092
		s0.729,1.04,1.239,1.397s1.084,0.615,1.723,0.773s1.274,0.237,1.907,0.237c0.188,0,0.343,0.064,0.466,0.193
		s0.185,0.287,0.185,0.475s-0.067,0.343-0.202,0.466s-0.284,0.185-0.448,0.185c-0.797,0-1.591-0.114-2.382-0.343
		s-1.503-0.58-2.136-1.055s-1.148-1.075-1.547-1.802s-0.598-1.582-0.598-2.566c0-0.855,0.173-1.62,0.519-2.294
		s0.829-1.274,1.45-1.802s1.371-0.99,2.25-1.389s1.852-0.75,2.918-1.055c0.773-0.223,1.541-0.457,2.303-0.703
		s1.485-0.501,2.171-0.765s1.315-0.539,1.89-0.826s1.066-0.589,1.477-0.905c0.469-1.313,0.973-2.323,1.512-3.032
		s1.055-1.063,1.547-1.063c0.105,0,0.22,0.021,0.343,0.062s0.24,0.105,0.352,0.193s0.202,0.208,0.272,0.36s0.105,0.34,0.105,0.563
		c0,0.516-0.27,1.102-0.809,1.758S131.936,7.699,131.01,8.367z M128.777,24.75c-0.68,0.293-1.441,0.668-2.285,1.125
		s-1.702,0.99-2.575,1.6s-1.723,1.283-2.549,2.021s-1.564,1.532-2.215,2.382s-1.172,1.746-1.564,2.689S117,36.486,117,37.494
		c0,0.855,0.123,1.605,0.369,2.25s0.577,1.184,0.993,1.617s0.891,0.759,1.424,0.976s1.081,0.325,1.644,0.325
		c0.973,0,1.828-0.226,2.566-0.677s1.38-1.078,1.925-1.881s0.999-1.758,1.362-2.865s0.656-2.326,0.879-3.656
		s0.381-2.742,0.475-4.236S128.777,26.32,128.777,24.75z"/>
	<path d="M137.672,31.113c0,0.27-0.091,0.495-0.272,0.677s-0.407,0.272-0.677,0.272s-0.495-0.091-0.677-0.272
		s-0.272-0.407-0.272-0.677c0-0.258,0.091-0.478,0.272-0.659s0.407-0.272,0.677-0.272s0.495,0.091,0.677,0.272
		S137.672,30.855,137.672,31.113z"/>
	<path d="M177.293,25.102c-0.551,0.891-1.295,1.772-2.232,2.646s-2.007,1.658-3.208,2.355s-2.511,1.26-3.929,1.688
		s-2.883,0.642-4.395,0.642c-1.184,0-2.364-0.105-3.542-0.316s-2.309-0.533-3.393-0.967s-2.092-0.981-3.023-1.644
		s-1.743-1.444-2.435-2.347s-1.233-1.928-1.626-3.076s-0.589-2.426-0.589-3.832c0-1.371,0.202-2.672,0.606-3.902
		s0.97-2.37,1.696-3.419s1.588-1.995,2.584-2.839s2.086-1.562,3.27-2.153s2.432-1.046,3.744-1.362s2.654-0.475,4.025-0.475
		c1.512,0,2.933,0.179,4.263,0.536s2.493,0.861,3.489,1.512s1.784,1.43,2.364,2.338s0.87,1.919,0.87,3.032
		c0,1.031-0.24,2.013-0.721,2.944s-1.14,1.749-1.978,2.452s-1.816,1.26-2.936,1.67s-2.312,0.615-3.577,0.615
		c-1.02,0-1.922-0.126-2.707-0.378s-1.441-0.601-1.969-1.046s-0.926-0.967-1.195-1.564s-0.404-1.242-0.404-1.934
		c0-0.574,0.091-1.099,0.272-1.573s0.381-0.882,0.598-1.222s0.422-0.606,0.615-0.8s0.302-0.302,0.325-0.325
		c0.059-0.059,0.126-0.097,0.202-0.114s0.149-0.026,0.22-0.026c0.188,0,0.346,0.059,0.475,0.176s0.193,0.27,0.193,0.457
		c0,0.211-0.076,0.387-0.229,0.527c-0.023,0.012-0.105,0.091-0.246,0.237s-0.293,0.346-0.457,0.598s-0.313,0.554-0.448,0.905
		s-0.202,0.738-0.202,1.16c0,0.668,0.149,1.23,0.448,1.688s0.688,0.829,1.169,1.116s1.014,0.492,1.6,0.615s1.172,0.185,1.758,0.185
		c1.09,0,2.112-0.176,3.067-0.527s1.79-0.82,2.505-1.406s1.277-1.26,1.688-2.021s0.615-1.559,0.615-2.391
		c0-0.914-0.258-1.749-0.773-2.505s-1.213-1.4-2.092-1.934s-1.907-0.946-3.085-1.239s-2.435-0.439-3.771-0.439
		c-1.008,0-2.065,0.12-3.173,0.36s-2.2,0.601-3.278,1.081s-2.106,1.078-3.085,1.793s-1.837,1.55-2.575,2.505
		s-1.327,2.024-1.767,3.208s-0.659,2.479-0.659,3.885c0,1.277,0.179,2.432,0.536,3.463s0.853,1.948,1.485,2.751
		s1.374,1.497,2.224,2.083s1.764,1.069,2.742,1.45s2.001,0.662,3.067,0.844s2.127,0.272,3.182,0.272c1.406,0,2.76-0.196,4.061-0.589
		s2.505-0.908,3.612-1.547s2.089-1.356,2.944-2.153s1.535-1.6,2.039-2.408c0.059-0.105,0.141-0.185,0.246-0.237
		s0.217-0.079,0.334-0.079c0.199,0,0.357,0.067,0.475,0.202s0.176,0.284,0.176,0.448c0,0.059-0.006,0.117-0.018,0.176
		S177.328,25.043,177.293,25.102z"/>
	<path d="M192.691,26.719c-0.047,0.094-0.144,0.29-0.29,0.589s-0.334,0.642-0.563,1.028s-0.495,0.791-0.8,1.213
		s-0.645,0.809-1.02,1.16s-0.779,0.642-1.213,0.87s-0.891,0.343-1.371,0.343c-0.68,0-1.251-0.217-1.714-0.65s-0.8-0.979-1.011-1.635
		c-0.398,0.668-0.873,1.198-1.424,1.591s-1.102,0.589-1.652,0.589c-0.434,0-0.826-0.079-1.178-0.237s-0.65-0.381-0.896-0.668
		s-0.437-0.624-0.571-1.011s-0.202-0.809-0.202-1.266c0-0.914,0.155-1.72,0.466-2.417s0.706-1.28,1.187-1.749
		s1.011-0.82,1.591-1.055s1.14-0.352,1.679-0.352c0.363,0,0.697,0.05,1.002,0.149s0.565,0.208,0.782,0.325s0.384,0.226,0.501,0.325
		s0.182,0.155,0.193,0.167c0.129,0.152,0.193,0.311,0.193,0.475c0,0.176-0.064,0.331-0.193,0.466s-0.281,0.202-0.457,0.202
		c-0.188,0-0.346-0.064-0.475-0.193c-0.023-0.023-0.076-0.067-0.158-0.132s-0.193-0.132-0.334-0.202s-0.308-0.132-0.501-0.185
		s-0.413-0.079-0.659-0.079c-0.363,0-0.75,0.082-1.16,0.246s-0.785,0.419-1.125,0.765s-0.624,0.779-0.853,1.301
		s-0.343,1.14-0.343,1.854c0,0.223,0.023,0.448,0.07,0.677s0.129,0.437,0.246,0.624s0.275,0.34,0.475,0.457s0.445,0.176,0.738,0.176
		c0.211,0,0.454-0.07,0.729-0.211s0.539-0.357,0.791-0.65s0.48-0.662,0.686-1.107s0.349-0.973,0.431-1.582
		c0.023-0.164,0.1-0.302,0.229-0.413s0.281-0.167,0.457-0.167c0.164,0,0.308,0.064,0.431,0.193s0.19,0.275,0.202,0.439
		c0.012,0.223,0.035,0.536,0.07,0.94s0.114,0.806,0.237,1.204s0.308,0.744,0.554,1.037s0.586,0.439,1.02,0.439
		c0.281,0,0.56-0.076,0.835-0.229s0.545-0.354,0.809-0.606s0.516-0.539,0.756-0.861s0.46-0.647,0.659-0.976s0.375-0.645,0.527-0.949
		s0.281-0.568,0.387-0.791c0.059-0.129,0.144-0.229,0.255-0.299s0.231-0.105,0.36-0.105c0.199,0,0.36,0.073,0.483,0.22
		s0.185,0.302,0.185,0.466C192.744,26.555,192.727,26.637,192.691,26.719z"/>
	<path d="M195.539,30.059c0.176-0.352,0.401-0.788,0.677-1.31s0.563-1.046,0.861-1.573s0.592-1.025,0.879-1.494
		s0.53-0.826,0.729-1.072c0.34-0.41,0.691-0.703,1.055-0.879s0.697-0.264,1.002-0.264s0.565,0.064,0.782,0.193
		s0.396,0.302,0.536,0.519s0.246,0.469,0.316,0.756s0.105,0.595,0.105,0.923c0,0.188-0.009,0.434-0.026,0.738
		s-0.035,0.633-0.053,0.984s-0.035,0.715-0.053,1.09s-0.032,0.727-0.044,1.055c0.176-0.352,0.375-0.741,0.598-1.169
		s0.448-0.853,0.677-1.274s0.448-0.817,0.659-1.187s0.404-0.671,0.58-0.905c0.504-0.691,0.976-1.154,1.415-1.389
		s0.829-0.352,1.169-0.352c0.398,0,0.727,0.073,0.984,0.22s0.46,0.334,0.606,0.563s0.249,0.483,0.308,0.765s0.088,0.551,0.088,0.809
		c0,0.398-0.029,0.814-0.088,1.248s-0.088,0.949-0.088,1.547c0,0.246,0.012,0.492,0.035,0.738s0.073,0.463,0.149,0.65
		s0.196,0.34,0.36,0.457s0.387,0.176,0.668,0.176c0.305,0,0.604-0.079,0.896-0.237s0.574-0.366,0.844-0.624s0.524-0.551,0.765-0.879
		s0.46-0.656,0.659-0.984s0.375-0.642,0.527-0.94s0.275-0.554,0.369-0.765c0.059-0.129,0.141-0.229,0.246-0.299
		s0.223-0.105,0.352-0.105c0.199,0,0.36,0.073,0.483,0.22s0.185,0.302,0.185,0.466c0,0.082-0.018,0.164-0.053,0.246
		c-0.047,0.094-0.141,0.29-0.281,0.589s-0.328,0.639-0.563,1.02s-0.507,0.782-0.817,1.204s-0.653,0.812-1.028,1.169
		s-0.779,0.65-1.213,0.879s-0.891,0.343-1.371,0.343c-0.516,0-0.935-0.091-1.257-0.272s-0.58-0.425-0.773-0.729
		s-0.325-0.656-0.396-1.055s-0.105-0.814-0.105-1.248c0-0.574,0.029-1.104,0.088-1.591s0.088-0.864,0.088-1.134
		c0-0.293-0.026-0.516-0.079-0.668s-0.117-0.261-0.193-0.325s-0.149-0.1-0.22-0.105s-0.123-0.009-0.158-0.009
		c-0.281,0-0.577,0.155-0.888,0.466s-0.63,0.724-0.958,1.239s-0.665,1.102-1.011,1.758s-0.694,1.324-1.046,2.004
		c-0.199,0.375-0.366,0.686-0.501,0.932s-0.264,0.439-0.387,0.58s-0.243,0.24-0.36,0.299s-0.246,0.088-0.387,0.088
		c-0.305,0-0.536-0.105-0.694-0.316s-0.237-0.486-0.237-0.826c0-0.176,0.006-0.41,0.018-0.703s0.023-0.615,0.035-0.967
		s0.029-0.715,0.053-1.09s0.041-0.735,0.053-1.081s0.023-0.653,0.035-0.923s0.018-0.475,0.018-0.615
		c0-0.305-0.053-0.524-0.158-0.659s-0.229-0.202-0.369-0.202c-0.129,0-0.272,0.047-0.431,0.141s-0.343,0.275-0.554,0.545
		c-0.164,0.211-0.372,0.519-0.624,0.923s-0.519,0.853-0.8,1.345s-0.56,0.996-0.835,1.512s-0.513,0.979-0.712,1.389
		c-0.246,0.492-0.492,0.829-0.738,1.011s-0.486,0.272-0.721,0.272c-0.34,0-0.592-0.103-0.756-0.308s-0.246-0.478-0.246-0.817
		c0-0.035,0.009-0.246,0.026-0.633s0.038-0.858,0.062-1.415s0.05-1.151,0.079-1.784s0.056-1.225,0.079-1.775
		c0.012-0.293,0-0.563-0.035-0.809s-0.082-0.393-0.141-0.439c-0.094,0.023-0.278,0.24-0.554,0.65s-0.624,1.125-1.046,2.145
		c-0.059,0.129-0.146,0.229-0.264,0.299s-0.24,0.105-0.369,0.105c-0.199,0-0.357-0.067-0.475-0.202s-0.176-0.29-0.176-0.466
		c0-0.082,0.018-0.17,0.053-0.264c0.527-1.254,1.031-2.177,1.512-2.769s0.949-0.888,1.406-0.888c0.27,0,0.495,0.062,0.677,0.185
		s0.325,0.281,0.431,0.475s0.182,0.413,0.229,0.659s0.07,0.486,0.07,0.721c0,1.043-0.026,1.998-0.079,2.865
		S195.598,29.18,195.539,30.059z"/>
	<path d="M216.598,29.689c0.246,0.34,0.563,0.612,0.949,0.817s0.861,0.308,1.424,0.308c0.574,0,1.096-0.138,1.564-0.413
		s0.896-0.636,1.283-1.081s0.732-0.943,1.037-1.494s0.58-1.102,0.826-1.652c0.059-0.129,0.141-0.226,0.246-0.29
		s0.223-0.097,0.352-0.097c0.199,0,0.36,0.07,0.483,0.211s0.185,0.293,0.185,0.457c0,0.059-0.006,0.108-0.018,0.149
		s-0.029,0.085-0.053,0.132c-0.809,1.781-1.69,3.123-2.646,4.025s-2.036,1.365-3.243,1.389c-0.773,0-1.441-0.149-2.004-0.448
		s-1.025-0.686-1.389-1.16s-0.633-1.011-0.809-1.608s-0.264-1.195-0.264-1.793s0.073-1.148,0.22-1.652s0.357-0.943,0.633-1.318
		s0.604-0.668,0.984-0.879s0.8-0.316,1.257-0.316c0.27,0,0.536,0.056,0.8,0.167s0.501,0.27,0.712,0.475s0.381,0.454,0.51,0.747
		s0.193,0.627,0.193,1.002c0,0.48-0.082,0.932-0.246,1.354s-0.39,0.814-0.677,1.178s-0.63,0.697-1.028,1.002
		S217.055,29.467,216.598,29.689z M216.07,28.547c0.363-0.152,0.694-0.346,0.993-0.58s0.554-0.492,0.765-0.773
		s0.375-0.577,0.492-0.888s0.176-0.624,0.176-0.94c0-0.352-0.088-0.618-0.264-0.8s-0.381-0.272-0.615-0.272
		c-0.316,0-0.586,0.088-0.809,0.264s-0.404,0.404-0.545,0.686s-0.243,0.595-0.308,0.94s-0.097,0.688-0.097,1.028
		c0,0.211,0.021,0.434,0.062,0.668S216.012,28.336,216.07,28.547z"/>
	<path d="M227.584,30.041c0.188-0.387,0.404-0.812,0.65-1.274s0.51-0.932,0.791-1.406s0.577-0.946,0.888-1.415
		s0.636-0.914,0.976-1.336c0.34-0.41,0.683-0.706,1.028-0.888s0.671-0.272,0.976-0.272c0.609,0,1.061,0.223,1.354,0.668
		s0.439,0.996,0.439,1.652c0,0.152-0.009,0.337-0.026,0.554s-0.035,0.448-0.053,0.694s-0.035,0.495-0.053,0.747
		s-0.026,0.489-0.026,0.712c0,0.281,0.015,0.551,0.044,0.809s0.085,0.483,0.167,0.677s0.199,0.346,0.352,0.457
		s0.352,0.167,0.598,0.167c0.445,0,0.879-0.173,1.301-0.519s0.812-0.756,1.169-1.23s0.668-0.958,0.932-1.45s0.46-0.891,0.589-1.195
		c0.059-0.129,0.144-0.229,0.255-0.299s0.231-0.105,0.36-0.105c0.199,0,0.36,0.073,0.483,0.22s0.185,0.302,0.185,0.466
		c0,0.082-0.018,0.164-0.053,0.246c-0.047,0.094-0.141,0.287-0.281,0.58s-0.325,0.63-0.554,1.011s-0.495,0.785-0.8,1.213
		s-0.642,0.817-1.011,1.169s-0.768,0.645-1.195,0.879s-0.876,0.352-1.345,0.352c-0.527,0-0.955-0.103-1.283-0.308
		s-0.586-0.475-0.773-0.809s-0.313-0.703-0.378-1.107s-0.097-0.812-0.097-1.222c0-0.176,0.009-0.375,0.026-0.598
		s0.041-0.457,0.07-0.703s0.053-0.492,0.07-0.738s0.026-0.48,0.026-0.703c0-0.375-0.059-0.63-0.176-0.765s-0.223-0.202-0.316-0.202
		c-0.188,0-0.401,0.108-0.642,0.325s-0.492,0.501-0.756,0.853s-0.533,0.747-0.809,1.187s-0.533,0.876-0.773,1.31
		s-0.463,0.847-0.668,1.239s-0.366,0.718-0.483,0.976c-0.234,0.492-0.469,0.823-0.703,0.993s-0.475,0.255-0.721,0.255
		c-0.34,0-0.612-0.103-0.817-0.308s-0.308-0.495-0.308-0.87c0-0.082,0.012-0.243,0.035-0.483s0.053-0.527,0.088-0.861
		s0.07-0.694,0.105-1.081s0.07-0.771,0.105-1.151s0.064-0.735,0.088-1.063s0.035-0.604,0.035-0.826c0-0.293-0.012-0.574-0.035-0.844
		s-0.07-0.434-0.141-0.492c-0.105,0.035-0.293,0.255-0.563,0.659s-0.615,1.116-1.037,2.136c-0.059,0.129-0.146,0.229-0.264,0.299
		s-0.24,0.105-0.369,0.105c-0.199,0-0.357-0.067-0.475-0.202s-0.176-0.29-0.176-0.466c0-0.082,0.018-0.17,0.053-0.264
		c0.527-1.254,1.022-2.177,1.485-2.769s0.923-0.888,1.38-0.888c0.27,0,0.498,0.067,0.686,0.202s0.337,0.313,0.448,0.536
		s0.193,0.469,0.246,0.738s0.079,0.545,0.079,0.826c0,0.211-0.015,0.539-0.044,0.984s-0.067,0.923-0.114,1.433
		s-0.091,1.017-0.132,1.521S227.619,29.701,227.584,30.041z"/>
	<path d="M246.059,33.346c2.203-2.871,3.732-5.256,4.588-7.154c0.059-0.129,0.138-0.226,0.237-0.29s0.214-0.097,0.343-0.097
		c0.199,0,0.363,0.067,0.492,0.202s0.193,0.29,0.193,0.466c0,0.082-0.018,0.164-0.053,0.246c-0.516,1.172-1.248,2.479-2.197,3.92
		s-2.15,3.07-3.604,4.887c0,0.738,0.006,1.477,0.018,2.215s0.018,1.547,0.018,2.426s-0.021,1.749-0.062,2.61
		s-0.114,1.682-0.22,2.461s-0.249,1.5-0.431,2.162s-0.416,1.236-0.703,1.723s-0.633,0.867-1.037,1.143s-0.882,0.413-1.433,0.413
		c-0.785,0-1.389-0.299-1.811-0.896s-0.633-1.447-0.633-2.549c0-0.586,0.056-1.222,0.167-1.907s0.272-1.392,0.483-2.118
		s0.466-1.462,0.765-2.206s0.63-1.468,0.993-2.171s0.759-1.377,1.187-2.021s0.882-1.23,1.362-1.758
		c0.012-0.82,0.021-1.635,0.026-2.443s0.021-1.553,0.044-2.232c-0.352,0.445-0.771,0.797-1.257,1.055s-0.97,0.387-1.45,0.387
		c-0.41,0-0.782-0.079-1.116-0.237s-0.618-0.381-0.853-0.668s-0.416-0.624-0.545-1.011s-0.193-0.809-0.193-1.266
		c0-0.914,0.155-1.72,0.466-2.417s0.706-1.28,1.187-1.749s1.011-0.82,1.591-1.055s1.14-0.352,1.679-0.352
		c0.363,0,0.697,0.047,1.002,0.141s0.565,0.199,0.782,0.316s0.384,0.229,0.501,0.334s0.182,0.164,0.193,0.176
		c0.129,0.141,0.193,0.299,0.193,0.475s-0.064,0.331-0.193,0.466s-0.281,0.202-0.457,0.202c-0.164,0-0.322-0.064-0.475-0.193
		c-0.047-0.035-0.108-0.085-0.185-0.149s-0.176-0.132-0.299-0.202s-0.27-0.129-0.439-0.176s-0.372-0.07-0.606-0.07
		c-0.352,0-0.738,0.079-1.16,0.237s-0.814,0.407-1.178,0.747s-0.668,0.776-0.914,1.31s-0.369,1.175-0.369,1.925
		c0,0.563,0.123,1.017,0.369,1.362s0.627,0.519,1.143,0.519c0.246,0,0.507-0.07,0.782-0.211s0.542-0.357,0.8-0.65
		s0.483-0.662,0.677-1.107s0.331-0.973,0.413-1.582c0.023-0.164,0.1-0.302,0.229-0.413s0.281-0.167,0.457-0.167
		c0.199,0,0.354,0.07,0.466,0.211s0.167,0.299,0.167,0.475c0,0.012-0.006,0.19-0.018,0.536s-0.023,0.806-0.035,1.38
		s-0.026,1.239-0.044,1.995S246.07,32.502,246.059,33.346z M244.723,37.195c-0.551,0.762-1.049,1.591-1.494,2.487
		s-0.826,1.802-1.143,2.716s-0.56,1.802-0.729,2.663s-0.255,1.632-0.255,2.312c0,0.434,0.038,0.779,0.114,1.037
		s0.17,0.457,0.281,0.598s0.234,0.234,0.369,0.281s0.261,0.07,0.378,0.07c0.363,0,0.68-0.146,0.949-0.439s0.498-0.683,0.686-1.169
		s0.34-1.046,0.457-1.679s0.205-1.286,0.264-1.96s0.1-1.345,0.123-2.013s0.035-1.283,0.035-1.846c0-0.504,0-1.008,0-1.512
		S244.746,37.723,244.723,37.195z"/>
	<path d="M264.234,26.719c-0.047,0.094-0.144,0.29-0.29,0.589s-0.334,0.642-0.563,1.028s-0.495,0.791-0.8,1.213
		s-0.645,0.809-1.02,1.16s-0.779,0.642-1.213,0.87s-0.891,0.343-1.371,0.343c-0.68,0-1.251-0.217-1.714-0.65s-0.8-0.979-1.011-1.635
		c-0.398,0.668-0.873,1.198-1.424,1.591s-1.102,0.589-1.652,0.589c-0.434,0-0.826-0.079-1.178-0.237s-0.65-0.381-0.896-0.668
		s-0.437-0.624-0.571-1.011s-0.202-0.809-0.202-1.266c0-0.914,0.155-1.72,0.466-2.417s0.706-1.28,1.187-1.749
		s1.011-0.82,1.591-1.055s1.14-0.352,1.679-0.352c0.363,0,0.697,0.05,1.002,0.149s0.565,0.208,0.782,0.325s0.384,0.226,0.501,0.325
		s0.182,0.155,0.193,0.167c0.129,0.152,0.193,0.311,0.193,0.475c0,0.176-0.064,0.331-0.193,0.466s-0.281,0.202-0.457,0.202
		c-0.188,0-0.346-0.064-0.475-0.193c-0.023-0.023-0.076-0.067-0.158-0.132s-0.193-0.132-0.334-0.202s-0.308-0.132-0.501-0.185
		s-0.413-0.079-0.659-0.079c-0.363,0-0.75,0.082-1.16,0.246s-0.785,0.419-1.125,0.765s-0.624,0.779-0.853,1.301
		s-0.343,1.14-0.343,1.854c0,0.223,0.023,0.448,0.07,0.677s0.129,0.437,0.246,0.624s0.275,0.34,0.475,0.457s0.445,0.176,0.738,0.176
		c0.211,0,0.454-0.07,0.729-0.211s0.539-0.357,0.791-0.65s0.48-0.662,0.686-1.107s0.349-0.973,0.431-1.582
		c0.023-0.164,0.1-0.302,0.229-0.413s0.281-0.167,0.457-0.167c0.164,0,0.308,0.064,0.431,0.193s0.19,0.275,0.202,0.439
		c0.012,0.223,0.035,0.536,0.07,0.94s0.114,0.806,0.237,1.204s0.308,0.744,0.554,1.037s0.586,0.439,1.02,0.439
		c0.281,0,0.56-0.076,0.835-0.229s0.545-0.354,0.809-0.606s0.516-0.539,0.756-0.861s0.46-0.647,0.659-0.976s0.375-0.645,0.527-0.949
		s0.281-0.568,0.387-0.791c0.059-0.129,0.144-0.229,0.255-0.299s0.231-0.105,0.36-0.105c0.199,0,0.36,0.073,0.483,0.22
		s0.185,0.302,0.185,0.466C264.287,26.555,264.27,26.637,264.234,26.719z"/>
</g>
<g>
</g>
<g>
</g>
<g>
</g>
<g>
</g>
<g>
</g>
<g>
</g>
</svg>
