<?xml version="1.0" encoding="utf-8"?>
<!-- Generator: Adobe Illustrator 16.0.0, SVG Export Plug-In . SVG Version: 6.00 Build 0)  -->
<!DOCTYPE svg PUBLIC "-//W3C//DTD SVG 1.1//EN" "http://www.w3.org/Graphics/SVG/1.1/DTD/svg11.dtd">
<svg version="1.1" id="Layer_1" xmlns="http://www.w3.org/2000/svg" xmlns:xlink="http://www.w3.org/1999/xlink" x="0px" y="0px"
	 width="272.55px" height="35.882px" viewBox="0 0 272.55 35.882" enable-background="new 0 0 272.55 35.882" xml:space="preserve">
<g>
	<rect x="0.878" y="3.346" fill="none" width="270.792" height="25.562"/>
	<path d="M7.677,20.472l-1.914,6.304H1.571L8.701,4.531h5.182l7.228,22.245h-4.39l-2.013-6.304H7.677z M14.047,17.402l-1.75-5.479
		c-0.429-1.354-0.792-2.872-1.122-4.159H11.11c-0.33,1.287-0.693,2.838-1.056,4.159l-1.716,5.479H14.047z"/>
	<path d="M23.879,15.488c0-1.848-0.066-3.399-0.132-4.786h3.531l0.198,2.409h0.099c0.726-1.254,2.475-2.772,5.148-2.772
		c2.806,0,5.71,1.815,5.71,6.898v9.539h-4.06V17.7c0-2.311-0.858-4.06-3.069-4.06c-1.617,0-2.74,1.155-3.168,2.376
		c-0.132,0.33-0.198,0.825-0.198,1.288v9.472h-4.06V15.488z"/>
	<path d="M57.574,3.342v18.912c0,1.65,0.066,3.432,0.132,4.521h-3.598l-0.198-2.542h-0.066c-0.958,1.782-2.905,2.905-5.215,2.905
		c-3.862,0-6.898-3.268-6.898-8.218c-0.033-5.38,3.333-8.582,7.195-8.582c2.211,0,3.795,0.891,4.522,2.08h0.066V3.342H57.574z
		 M53.515,17.402c0-0.33-0.033-0.759-0.099-1.089c-0.363-1.551-1.65-2.838-3.499-2.838c-2.607,0-4.06,2.31-4.06,5.281
		c0,2.97,1.452,5.116,4.026,5.116c1.65,0,3.103-1.122,3.499-2.872c0.099-0.363,0.132-0.759,0.132-1.188V17.402z"/>
	<path d="M61.928,15.884c0-2.178-0.033-3.763-0.132-5.182h3.499l0.165,3.036h0.099c0.792-2.244,2.674-3.399,4.423-3.399
		c0.396,0,0.627,0.033,0.957,0.099v3.795c-0.363-0.066-0.726-0.099-1.221-0.099c-1.914,0-3.267,1.221-3.63,3.069
		c-0.066,0.363-0.099,0.792-0.099,1.221v8.35h-4.06V15.884z"/>
	<path d="M76.25,19.878c0.099,2.904,2.343,4.159,4.951,4.159c1.881,0,3.201-0.297,4.456-0.726l0.594,2.772
		c-1.386,0.594-3.301,1.023-5.611,1.023c-5.215,0-8.284-3.202-8.284-8.119c0-4.456,2.706-8.647,7.855-8.647
		c5.215,0,6.931,4.291,6.931,7.822c0,0.759-0.066,1.353-0.132,1.716H76.25z M83.313,17.04c0.033-1.485-0.627-3.928-3.333-3.928
		c-2.508,0-3.564,2.277-3.729,3.928H83.313z"/>
	<path d="M92.75,10.703l1.65,7.294c0.396,1.716,0.759,3.465,1.056,5.215h0.066c0.33-1.75,0.858-3.532,1.287-5.182l2.112-7.327h3.301
		l2.013,7.129c0.495,1.881,0.924,3.63,1.287,5.38h0.066c0.231-1.75,0.627-3.499,1.056-5.38l1.782-7.129h3.994l-5.05,16.073h-3.763
		l-1.914-6.535c-0.495-1.683-0.858-3.201-1.221-5.148h-0.066c-0.363,1.98-0.759,3.564-1.221,5.148l-2.046,6.535h-3.795
		l-4.753-16.073H92.75z"/>
	<path d="M127.433,4.531h1.584v15.38c0,5.677-2.838,7.228-6.007,7.228c-1.023,0-2.146-0.264-2.707-0.528l0.33-1.254
		c0.561,0.231,1.353,0.429,2.343,0.429c2.838,0,4.456-1.287,4.456-6.238V4.531z"/>
	<path d="M132.745,25.654c0-0.858,0.561-1.485,1.353-1.485c0.792,0,1.32,0.627,1.32,1.485c0,0.792-0.528,1.485-1.386,1.485
		C133.273,27.139,132.711,26.446,132.745,25.654z"/>
	<path d="M161.688,25.984c-1.122,0.561-3.267,1.122-6.007,1.122c-5.379,0-10.528-3.433-10.528-11.321
		c0-6.601,4.258-11.618,11.288-11.618c2.838,0,4.489,0.627,5.149,0.99l-0.495,1.32c-1.122-0.561-2.74-0.957-4.621-0.957
		c-6.007,0-9.67,3.895-9.67,10.297c0,6.04,3.432,9.935,9.406,9.935c1.881,0,3.729-0.396,5.017-1.023L161.688,25.984z"/>
	<path d="M175.151,23.013c0,1.254,0.033,2.542,0.231,3.763h-1.452l-0.231-2.277h-0.066c-0.792,1.221-2.541,2.641-5.083,2.641
		c-3.202,0-4.654-2.245-4.654-4.357c0-3.664,3.202-5.875,9.67-5.809v-0.429c0-1.551-0.297-4.687-4.06-4.654
		c-1.386,0-2.838,0.363-3.994,1.188l-0.495-1.155c1.452-0.957,3.235-1.354,4.654-1.354c4.588,0,5.479,3.433,5.479,6.238V23.013z
		 M173.566,18.293c-3.465-0.099-8.02,0.429-8.02,4.225c0,2.277,1.518,3.301,3.168,3.301c2.64,0,4.159-1.617,4.687-3.168
		c0.132-0.33,0.165-0.693,0.165-0.957V18.293z"/>
	<path d="M180.264,14.729c0-1.452-0.033-2.541-0.132-3.795h1.485l0.099,2.805h0.066c1.023-1.815,2.542-3.168,5.149-3.168
		c2.178,0,3.861,1.453,4.555,3.466h0.066c0.429-0.957,1.023-1.65,1.617-2.146c1.023-0.858,2.08-1.32,3.763-1.32
		c1.551,0,5.182,0.858,5.182,6.865v9.34h-1.584v-9.175c0-3.564-1.386-5.677-4.126-5.677c-1.98,0-3.531,1.452-4.158,3.135
		c-0.132,0.462-0.264,0.99-0.264,1.551v10.166h-1.584v-9.901c0-2.872-1.353-4.951-3.927-4.951c-2.112,0-3.796,1.716-4.39,3.564
		c-0.132,0.429-0.231,0.99-0.231,1.518v9.77h-1.584V14.729z"/>
	<path d="M207.521,18.69c0,5.049,2.74,7.063,6.04,7.063c2.31,0,3.499-0.462,4.39-0.891l0.396,1.221
		c-0.594,0.33-2.211,1.023-4.984,1.023c-4.555,0-7.393-3.3-7.393-7.954c0-5.281,3.037-8.582,7.129-8.582
		c5.182,0,6.172,4.885,6.172,7.162c0,0.429,0,0.66-0.066,0.958H207.521z M217.621,17.436c0.033-2.211-0.891-5.545-4.72-5.545
		c-3.499,0-5.017,3.103-5.314,5.545H217.621z"/>
	<path d="M223.295,14.729c0-1.452-0.033-2.541-0.132-3.795h1.485l0.099,2.872h0.066c0.858-1.782,2.872-3.235,5.446-3.235
		c1.519,0,5.545,0.759,5.545,6.7v9.505h-1.584v-9.374c0-2.871-1.123-5.479-4.39-5.479c-2.211,0-4.126,1.584-4.753,3.63
		c-0.099,0.396-0.198,0.924-0.198,1.419v9.802h-1.584V14.729z"/>
	<path d="M253.624,24.465c0,4.06-0.858,6.073-2.178,7.327c-1.452,1.386-3.597,1.881-5.379,1.881c-1.815,0-3.829-0.462-5.05-1.386
		l0.561-1.254c1.122,0.726,2.673,1.32,4.72,1.32c3.333,0,5.743-1.716,5.743-6.403v-2.244h-0.066
		c-0.825,1.617-2.673,3.069-5.512,3.069c-3.994,0-6.799-3.465-6.799-7.789c0-5.512,3.631-8.417,7.129-8.417
		c3.135,0,4.687,1.716,5.347,3.037h0.066l0.099-2.673h1.452c-0.099,1.188-0.132,2.442-0.132,4.093V24.465z M252.04,17.04
		c0-0.594-0.033-1.089-0.198-1.551c-0.66-1.914-2.31-3.598-4.917-3.598c-3.367,0-5.677,2.739-5.677,6.931
		c0,3.564,1.881,6.634,5.611,6.634c2.145,0,4.092-1.287,4.917-3.564c0.165-0.528,0.264-1.122,0.264-1.683V17.04z"/>
	<path d="M268.803,23.013c0,1.254,0.033,2.542,0.23,3.763h-1.451l-0.23-2.277h-0.066c-0.793,1.221-2.541,2.641-5.084,2.641
		c-3.201,0-4.653-2.245-4.653-4.357c0-3.664,3.202-5.875,9.67-5.809v-0.429c0-1.551-0.297-4.687-4.059-4.654
		c-1.387,0-2.84,0.363-3.995,1.188l-0.495-1.155c1.453-0.957,3.234-1.354,4.654-1.354c4.588,0,5.479,3.433,5.479,6.238V23.013z
		 M267.219,18.293c-3.465-0.099-8.02,0.429-8.02,4.225c0,2.277,1.518,3.301,3.168,3.301c2.641,0,4.158-1.617,4.688-3.168
		c0.131-0.33,0.164-0.693,0.164-0.957V18.293z"/>
</g>
<g>
</g>
<g>
</g>
<g>
</g>
<g>
</g>
<g>
</g>
<g>
</g>
</svg>
