<?xml version="1.0" encoding="UTF-8" standalone="no"?>
<!-- Created with Inkscape (http://www.inkscape.org/) -->

<svg
   xmlns:dc="http://purl.org/dc/elements/1.1/"
   xmlns:cc="http://creativecommons.org/ns#"
   xmlns:rdf="http://www.w3.org/1999/02/22-rdf-syntax-ns#"
   xmlns:svg="http://www.w3.org/2000/svg"
   xmlns="http://www.w3.org/2000/svg"
   xmlns:sodipodi="http://sodipodi.sourceforge.net/DTD/sodipodi-0.dtd"
   xmlns:inkscape="http://www.inkscape.org/namespaces/inkscape"
   width="86.336372mm"
   height="13.101345mm"
   viewBox="0 0 86.336372 13.101345"
   version="1.1"
   id="svg892"
   inkscape:version="0.92.4 (5da689c313, 2019-01-14)"
   sodipodi:docname="andrewjcamenga-light-path.svg">
  <defs
     id="defs886" />
  <sodipodi:namedview
     id="base"
     pagecolor="#ffffff"
     bordercolor="#666666"
     borderopacity="1.0"
     inkscape:pageopacity="0.0"
     inkscape:pageshadow="2"
     inkscape:zoom="6.0605413"
     inkscape:cx="142.35929"
     inkscape:cy="0.70866142"
     inkscape:document-units="mm"
     inkscape:current-layer="flowRoot1445"
     showgrid="false"
     inkscape:window-width="1600"
     inkscape:window-height="837"
     inkscape:window-x="-8"
     inkscape:window-y="177"
     inkscape:window-maximized="1"
     showguides="true"
     inkscape:guide-bbox="true"
     fit-margin-top="0"
     fit-margin-left="0"
     fit-margin-right="0"
     fit-margin-bottom="0">
    <sodipodi:guide
       position="54.977244,2.9984644"
       orientation="0,1"
       id="guide5171"
       inkscape:locked="false" />
  </sodipodi:namedview>
  <metadata
     id="metadata889">
    <rdf:RDF>
      <cc:Work
         rdf:about="">
        <dc:format>image/svg+xml</dc:format>
        <dc:type
           rdf:resource="http://purl.org/dc/dcmitype/StillImage" />
        <dc:title></dc:title>
      </cc:Work>
    </rdf:RDF>
  </metadata>
  <g
     inkscape:label="Layer 1"
     inkscape:groupmode="layer"
     id="layer1"
     transform="translate(-25.700369,-10.49189)">
    <g
       aria-label="Andrew J. Camenga"
       transform="scale(0.26458333)"
       style="font-style:normal;font-variant:normal;font-weight:bold;font-stretch:normal;font-size:48px;line-height:125%;font-family:'Poiret One';-inkscape-font-specification:'Poiret One Bold';letter-spacing:0px;word-spacing:0px;fill:#000000;fill-opacity:1;stroke:none;stroke-width:1px;stroke-linecap:butt;stroke-linejoin:miter;stroke-opacity:1"
       id="flowRoot1445">
      <path
         d="m 107.19922,66.359245 -3.23438,7.453125 q -0.30468,0.726562 0.375,1.03125 0.70313,0.304687 2.48438,0.5625 l -0.16406,1.242187 h -9.093754 l 0.164063,-1.242187 q 1.5,-0.28125 2.367191,-0.585938 0.86718,-0.328125 1.17187,-1.007812 l 11.27344,-25.78125 q 0.39844,-0.351563 0.89062,-0.679688 0.51563,-0.328125 1.03125,-0.609375 0.53907,-0.304687 1.03125,-0.539062 0.51563,-0.257813 0.91407,-0.421875 l 5.13281,28.03125 q 0.0703,0.328125 0.1875,0.585937 0.14062,0.234375 0.42187,0.445313 0.28125,0.1875 0.72657,0.328125 0.46875,0.140625 1.21875,0.234375 l -0.14063,1.242187 h -9.60937 l 0.14062,-1.242187 q 1.66406,-0.117188 2.36719,-0.46875 0.70312,-0.375 0.5625,-1.125 l -1.3125,-7.453125 z m 8.46094,-2.367188 -2.15625,-12.1875 -5.27344,12.1875 z"
         style="font-style:italic;font-variant:normal;font-weight:normal;font-stretch:normal;font-family:'Gentium Book Basic';-inkscape-font-specification:'Gentium Book Basic Italic';stroke:#000000;stroke-width:0.75590551;stroke-miterlimit:4;stroke-dasharray:none;stroke-opacity:1"
         id="path5140"
         inkscape:connector-curvature="0" />
      <path
         d="m 146.32456,73.830994 q -0.95954,0.769474 -1.88531,1.439728 -0.90254,0.667086 -1.70796,1.179009 -0.80542,0.511921 -1.47361,0.815901 -0.66502,0.327202 -1.15269,0.393684 -0.8128,0.110805 -1.40178,-0.56584 -0.5626,-0.656588 -0.73355,-1.910614 -0.057,-0.418008 -0.0601,-1.482024 0.0169,-1.090405 0.0391,-2.489037 0.0423,-1.425022 0.0856,-3.015766 0.0666,-1.593911 0.0825,-3.038989 0.0391,-1.448243 0.0233,-2.60515 0.007,-1.160074 -0.0622,-1.670973 -0.22161,-1.625589 -0.63537,-2.231503 -0.41376,-0.605914 -1.34267,-0.479281 -0.3019,0.04116 -0.95425,0.461248 -0.63231,0.393705 -1.40291,1.161077 -0.77059,0.767372 -1.58659,1.895746 -0.79594,1.101987 -1.4019,2.556542 -0.5215,1.2065 -0.70417,2.816239 -0.18267,1.60974 -0.27038,3.916163 -0.0433,1.070347 -0.0455,1.922194 -0.002,0.851846 0.0295,1.604471 0.0517,0.726239 0.11713,1.379635 0.0855,0.627013 0.19731,1.274088 -0.27974,0.203715 -0.80226,0.535144 -0.52252,0.331431 -1.09148,0.669191 -0.54575,0.334596 -1.07143,0.642803 -0.4993,0.328263 -0.75581,0.528813 l -0.91728,-0.655545 q 0.11302,-1.600243 0.17748,-3.383102 0.0877,-1.786023 0.12891,-3.565716 0.0381,-1.802916 0.0424,-3.506609 0.0275,-1.706859 -0.003,-3.145604 -0.007,-1.441912 -0.0601,-2.522819 -0.0327,-1.107296 -0.10549,-1.641419 -0.0728,-0.534122 -0.18362,-0.826521 -0.0908,-0.318783 -0.22589,-0.442293 -0.115,-0.149902 -0.28394,-0.17418 -0.16888,-0.02428 -0.37789,0.0042 -0.20901,0.02849 -0.61435,0.178368 -0.38212,0.14671 -0.76108,0.316643 -0.44546,0.202653 -0.95742,0.438026 l -0.52669,-1.08726 q 0.91837,-0.550974 1.95285,-1.117776 1.03132,-0.590025 1.95919,-1.071332 0.92786,-0.481304 1.64249,-0.791615 0.71147,-0.333534 1.01337,-0.37469 0.32511,-0.04432 0.52672,0.04647 0.19845,0.06756 0.32933,0.333573 0.1541,0.262843 0.24698,0.770577 0.11612,0.504564 0.23009,1.340581 0.0348,0.25545 0.0654,0.653397 0.0275,0.374724 0.0643,0.819129 0.037,0.444392 0.0475,0.868736 0.0105,0.424344 0.0253,0.706177 1.0514,-1.657207 2.18302,-2.899572 1.13163,-1.242366 2.2474,-2.080448 1.13582,-0.864469 2.22942,-1.344713 1.11681,-0.483411 2.16183,-0.625872 0.71991,-0.09814 1.30575,0.03488 0.60588,0.106637 1.04076,0.520438 0.45494,0.387411 0.7452,1.128434 0.31031,0.714634 0.46227,1.829323 0.1108,0.812794 0.10971,2.019313 0.0221,1.203353 -0.0265,2.581928 -0.0486,1.378575 -0.13101,2.856373 -0.0592,1.474631 -0.11411,2.806762 -0.0549,1.332129 -0.0719,2.422533 0.006,1.08724 0.0949,1.737476 0.10764,0.789572 0.3578,1.062975 0.247,0.250179 0.665,0.193195 0.53412,-0.07281 1.13581,-0.344074 0.62491,-0.274425 1.54644,-0.802176 z"
         style="font-style:italic;font-variant:normal;font-weight:normal;font-stretch:normal;font-family:'Gentium Book Basic';-inkscape-font-specification:'Gentium Book Basic Italic';stroke:#000000;stroke-width:0.75590551;stroke-miterlimit:4;stroke-dasharray:none;stroke-opacity:1"
         id="path5142"
         inkscape:connector-curvature="0" />
      <path
         d="m 160.18713,65.618707 q 0.27303,-1.439508 0.68659,-3.269833 0.43695,-1.82894 0.88637,-3.868449 -0.37282,-0.44468 -0.77042,-0.867349 -0.3962,-0.446064 -0.86815,-0.802697 -0.44716,-0.378645 -0.97281,-0.621065 -0.50227,-0.241035 -1.06378,-0.27427 -1.02945,-0.06093 -1.94898,0.401169 -0.91816,0.438704 -1.7167,1.236666 -0.77514,0.799346 -1.42376,1.840967 -0.62522,1.043006 -1.09081,2.165896 -0.4422,1.124274 -0.71924,2.234845 -0.25365,1.111956 -0.30766,2.024422 -0.0859,1.450586 0.10365,2.612249 0.21429,1.139653 0.61173,1.961447 0.42085,0.823179 0.98084,1.278938 0.55999,0.455758 1.19169,0.493148 0.53812,0.03185 1.24571,-0.419316 0.70758,-0.451169 1.53229,-1.294539 0.82609,-0.866766 1.74315,-2.080326 0.91844,-1.236958 1.90029,-2.751903 z m 7.35607,8.206787 q -2.06763,1.215895 -3.56254,1.878726 -1.4715,0.664216 -2.31378,0.614362 -0.42113,-0.02493 -0.8215,-0.400802 -0.40175,-0.352478 -0.68222,-1.167349 -0.27908,-0.838266 -0.4355,-2.162321 -0.13301,-1.32267 -0.0635,-3.29075 -0.92813,1.400732 -1.93877,2.608753 -1.00926,1.184625 -2.0473,2.062325 -1.01327,0.855688 -2.05117,1.334261 -1.01451,0.479959 -1.95038,0.424566 -0.84227,-0.04985 -1.74905,-0.596574 -0.88477,-0.521939 -1.62071,-1.575074 -0.71115,-1.075147 -1.13309,-2.673183 -0.42055,-1.621431 -0.29177,-3.79731 0.1094,-1.848329 0.63301,-3.554747 0.52501,-1.729814 1.43667,-3.248915 0.93644,-1.541112 2.25678,-2.824717 1.32171,-1.307001 3.04796,-2.308317 0.68003,-0.382363 1.47427,-0.711009 0.79563,-0.352042 1.63251,-0.607729 0.83827,-0.279083 1.66823,-0.417787 0.85335,-0.137319 1.62544,-0.09162 0.46793,0.0277 0.96604,0.338921 0.5215,0.312609 1.03608,0.742202 0.35153,-1.575732 0.65211,-3.084045 0.32398,-1.506928 0.5653,-2.807441 0.26611,-1.322526 0.42201,-2.369831 0.18069,-1.069317 0.22085,-1.747817 0.0318,-0.538121 -0.0437,-0.847813 -0.0508,-0.331705 -0.20626,-0.481779 -0.13069,-0.172084 -0.31509,-0.229956 -0.18441,-0.05787 -0.39498,-0.07033 -0.21056,-0.01246 -0.63863,0.07959 -0.40328,0.07005 -0.80794,0.163486 -0.47624,0.112683 -1.04745,0.243223 l -0.2363,-1.164433 q 1.08193,-0.429012 2.18448,-0.809844 1.10255,-0.380833 2.0578,-0.652992 0.98003,-0.294171 1.71641,-0.438414 0.73775,-0.16764 1.0653,-0.148253 0.7019,0.04154 1.02792,0.483455 0.32602,0.44191 0.26232,1.518152 -0.054,0.912466 -0.30364,2.353358 -0.24964,1.440893 -0.63703,3.225809 -0.3626,1.762906 -0.83404,3.777633 -0.44664,1.992717 -0.94285,4.029456 -0.47281,2.038125 -0.94286,4.029456 -0.44525,1.969319 -0.82849,3.684046 -0.35983,1.716112 -0.60394,3.063418 -0.24409,1.347307 -0.29117,2.142789 -0.14679,2.480035 0.0661,3.643084 0.23768,1.141038 0.7758,1.172888 0.60832,0.03601 1.22355,-0.04497 0.61662,-0.104374 1.45627,-0.406853 z"
         style="font-style:italic;font-variant:normal;font-weight:normal;font-stretch:normal;font-family:'Gentium Book Basic';-inkscape-font-specification:'Gentium Book Basic Italic';stroke:#000000;stroke-width:0.75590551;stroke-miterlimit:4;stroke-dasharray:none;stroke-opacity:1"
         id="path5144"
         inkscape:connector-curvature="0" />
      <path
         d="m 186.47978,56.396428 q -0.28125,0.375 -0.67968,1.007813 -0.375,0.632812 -0.77344,1.242187 -0.375,0.609375 -0.72656,1.054688 -0.35157,0.445312 -0.58594,0.445312 -0.44531,0 -0.79688,-0.257812 -0.32812,-0.257813 -0.65625,-0.5625 -0.30468,-0.328125 -0.60937,-0.585938 -0.28125,-0.28125 -0.63281,-0.28125 -0.60938,0 -1.40625,0.75 -0.77344,0.75 -1.57032,2.015625 -0.79687,1.242188 -1.52343,2.835938 -0.70313,1.59375 -1.19532,3.28125 -0.25781,0.890625 -0.46875,1.921875 -0.1875,1.007812 -0.35156,2.085937 -0.14062,1.054688 -0.21094,2.109375 -0.0703,1.03125 -0.0234,1.96875 -0.32813,0.164063 -0.89063,0.421875 -0.53906,0.257813 -1.14844,0.515625 -0.58593,0.257813 -1.125,0.492188 -0.53906,0.257812 -0.82031,0.421875 l -0.84375,-0.773438 q 0.35156,-1.664062 0.67969,-3.421875 0.32812,-1.757812 0.60937,-3.46875 0.28125,-1.710937 0.51563,-3.304687 0.25781,-1.617188 0.42187,-3 0.1875,-1.40625 0.28125,-2.507813 0.0937,-1.125 0.0937,-1.828125 0,-0.539062 -0.0937,-0.84375 -0.0703,-0.328125 -0.21093,-0.46875 -0.11719,-0.164062 -0.30469,-0.210937 -0.16406,-0.04687 -0.35156,-0.04687 -0.23438,0 -0.63282,0.09375 -0.375,0.07031 -0.77343,0.1875 -0.44532,0.117187 -0.96094,0.28125 l -0.35156,-1.101563 q 0.98437,-0.445312 2.0625,-0.890625 1.10156,-0.445312 2.0625,-0.796875 0.98437,-0.351562 1.73437,-0.5625 0.77344,-0.234375 1.10156,-0.234375 0.32813,0 0.51563,0.117188 0.1875,0.09375 0.28125,0.398437 0.11719,0.28125 0.14062,0.796875 0.0234,0.492188 0.0234,1.265625 0,0.257813 -0.0703,0.820313 -0.0469,0.539062 -0.14063,1.195312 -0.0703,0.65625 -0.16406,1.3125 -0.0937,0.632813 -0.16406,1.078125 1.125,-2.15625 2.10937,-3.515625 1.00782,-1.359375 1.89844,-2.132812 0.89063,-0.773438 1.6875,-1.054688 0.82031,-0.28125 1.57031,-0.28125 0.42188,0 0.82032,0.234375 0.39843,0.234375 0.79687,0.5625 0.42188,0.328125 0.86719,0.679688 0.46875,0.328125 0.98437,0.539062 z"
         style="font-style:italic;font-variant:normal;font-weight:normal;font-stretch:normal;font-family:'Gentium Book Basic';-inkscape-font-specification:'Gentium Book Basic Italic';stroke:#000000;stroke-width:0.75590551;stroke-miterlimit:4;stroke-dasharray:none;stroke-opacity:1"
         id="path5146"
         inkscape:connector-curvature="0" />
      <path
         d="m 199.30342,62.386358 q -0.11397,0.646278 -0.40172,1.333308 -0.26061,0.668017 -0.86063,1.371375 -0.59595,0.680276 -1.60056,1.383682 -1.00054,0.680325 -2.54416,1.336274 -1.54363,0.65595 -3.72267,1.271242 -2.17496,0.592212 -5.1469,1.115275 -0.0772,1.247735 0.11297,2.32844 0.21328,1.084776 0.59489,1.889845 0.40468,0.80914 0.93561,1.307353 0.53091,0.498213 1.13103,0.604043 0.48471,0.08548 1.20157,0.0691 0.73994,-0.01231 1.70932,-0.245944 0.99245,-0.229567 2.26862,-0.718489 1.28025,-0.512002 2.86051,-1.375684 0.12628,0.09366 0.21319,0.275587 0.10999,0.185992 0.19284,0.390995 0.0828,0.205003 0.12359,0.378783 l 0.0937,0.278318 q -2.18167,1.305003 -3.84611,2.10624 -1.66038,0.778157 -2.96644,1.166612 -1.28297,0.392526 -2.31617,0.448313 -1.01013,0.05986 -1.9103,-0.09889 -0.83093,-0.146534 -1.79225,-0.768248 -0.94231,-0.594561 -1.67967,-1.676559 -0.73328,-1.105079 -1.09191,-2.715268 -0.35455,-1.633269 0.0321,-3.825996 0.31749,-1.800345 1.05724,-3.431027 0.74383,-1.653763 1.82846,-3.080831 1.10771,-1.422998 2.52908,-2.60029 1.44853,-1.196301 3.16048,-2.131956 0.58105,-0.325917 1.34269,-0.596188 0.7657,-0.293353 1.60339,-0.455016 0.84174,-0.184747 1.68216,-0.226933 0.86756,-0.0612 1.65232,0.07719 1.08482,0.191307 1.82755,0.703074 0.74679,0.488683 1.1759,1.159334 0.42911,0.670653 0.55276,1.454031 0.12771,0.760295 -0.003,1.498898 z m -8.76551,-1.712384 q -0.81454,0.57033 -1.62363,1.379613 -0.80503,0.786201 -1.52314,1.754323 -0.69096,0.949113 -1.24476,2.065206 -0.52666,1.097081 -0.80757,2.2851 2.9923,-0.638469 4.76673,-1.253716 1.80159,-0.634257 2.77498,-1.29557 0.97746,-0.684395 1.33853,-1.382293 0.36513,-0.720982 0.5076,-1.528828 0.11397,-0.646278 0.0338,-1.136397 -0.0761,-0.513201 -0.30015,-0.862103 -0.21999,-0.371983 -0.54179,-0.571526 -0.3218,-0.199545 -0.6911,-0.264671 -0.36931,-0.06513 -1.16082,0.104678 -0.76844,0.173877 -1.52869,0.706184 z"
         style="font-style:italic;font-variant:normal;font-weight:normal;font-stretch:normal;font-family:'Gentium Book Basic';-inkscape-font-specification:'Gentium Book Basic Italic';stroke:#000000;stroke-width:0.75590551;stroke-miterlimit:4;stroke-dasharray:none;stroke-opacity:1"
         id="path5148"
         inkscape:connector-curvature="0" />
      <path
         d="m 228.21127,55.282044 q 0,0.632813 -0.14063,1.429688 -0.11719,0.796875 -0.46875,1.921875 -0.32812,1.101562 -0.9375,2.601562 -0.58594,1.476563 -1.52344,3.46875 -0.91406,1.992188 -2.22656,4.546875 -1.3125,2.554688 -3.07031,5.8125 -0.21094,0.117188 -0.58594,0.304688 -0.35156,0.164062 -0.75,0.351562 l -0.77344,0.398438 q -0.375,0.1875 -0.60937,0.28125 l -0.84375,-0.773438 q -0.25781,-1.992187 -0.5625,-4.242187 -0.30469,-2.25 -0.63281,-4.359375 -0.32813,-2.132813 -0.65625,-3.9375 -0.32813,-1.804688 -0.63282,-2.882813 -0.0703,0.515625 -0.32812,1.429688 -0.25781,0.914062 -0.70313,2.109375 -0.42187,1.171875 -1.00781,2.578125 -0.5625,1.382812 -1.24219,2.835937 -0.65625,1.453125 -1.40625,2.929688 -0.72656,1.453125 -1.5,2.765625 -0.21093,0.117187 -0.60937,0.328125 -0.39844,0.210937 -0.84375,0.445312 -0.44531,0.234375 -0.86719,0.445313 -0.42187,0.234375 -0.65625,0.328125 l -0.79687,-0.773438 q -0.16407,-1.3125 -0.35157,-2.90625 -0.16406,-1.59375 -0.35156,-3.257812 -0.16406,-1.6875 -0.35156,-3.351563 -0.16406,-1.664062 -0.35156,-3.117187 -0.16407,-1.476563 -0.35157,-2.648438 -0.1875,-1.171875 -0.35156,-1.851562 -0.14062,-0.632813 -0.35156,-1.007813 -0.1875,-0.375 -0.42188,-0.585937 -0.21093,-0.210938 -0.44531,-0.257813 -0.23437,-0.07031 -0.44531,-0.07031 -0.21094,0 -0.58594,0.09375 -0.375,0.07031 -0.77344,0.1875 -0.44531,0.117187 -0.96093,0.28125 l -0.39844,-1.101563 q 1.00781,-0.46875 1.96875,-0.914062 0.98437,-0.46875 1.80469,-0.820313 0.84375,-0.351562 1.47656,-0.5625 0.63281,-0.234375 0.96094,-0.234375 0.65625,0 0.98437,0.773438 0.32813,0.75 0.72656,2.4375 0.14063,0.609375 0.30469,1.734375 0.1875,1.101562 0.375,2.484375 0.1875,1.359375 0.35156,2.859375 0.1875,1.5 0.32813,2.882812 0.16406,1.359375 0.25781,2.460938 0.11719,1.101562 0.16406,1.6875 0.9375,-1.828125 1.85157,-3.890625 0.9375,-2.085938 1.6875,-4.125 0.77343,-2.0625 1.26562,-3.9375 0.49219,-1.875 0.58594,-3.328125 0.375,-0.351563 0.86719,-0.703125 0.51562,-0.375 1.00781,-0.65625 0.49219,-0.304688 0.9375,-0.492188 0.44531,-0.1875 0.72656,-0.1875 0.0937,0 0.23438,0.398438 0.14062,0.375 0.30468,1.007812 0.16407,0.632813 0.35157,1.476563 0.1875,0.820312 0.35156,1.6875 0.1875,0.867187 0.35156,1.734375 0.16406,0.867187 0.28125,1.570312 0.16406,1.101563 0.375,2.367188 0.23438,1.265625 0.42188,2.554687 0.21093,1.289063 0.375,2.554688 0.1875,1.265625 0.30468,2.367187 1.59375,-2.882812 2.64844,-5.132812 1.05469,-2.25 1.66406,-3.9375 0.63282,-1.710938 0.89063,-2.929688 0.25781,-1.21875 0.25781,-2.039062 0,-0.492188 -0.35156,-0.773438 -0.32813,-0.28125 -0.9375,-0.28125 -0.32813,0 -0.84375,0.09375 -0.49219,0.09375 -1.00781,0.257813 l -0.46875,-1.101563 q 0.82031,-0.492187 1.61718,-0.84375 0.79688,-0.375 1.45313,-0.585937 0.67969,-0.234375 1.19531,-0.328125 0.51563,-0.117188 0.79688,-0.117188 0.39843,0 0.75,0.07031 0.35156,0.04687 0.60937,0.234375 0.28125,0.1875 0.44531,0.539062 0.16407,0.351563 0.16407,0.937501 z"
         style="font-style:italic;font-variant:normal;font-weight:normal;font-stretch:normal;font-family:'Gentium Book Basic';-inkscape-font-specification:'Gentium Book Basic Italic';stroke:#000000;stroke-width:0.75590551;stroke-miterlimit:4;stroke-dasharray:none;stroke-opacity:1"
         id="path5150"
         inkscape:connector-curvature="0" />
      <path
         d="m 253.58338,47.377082 q -1.52143,0.187824 -2.47316,0.530728 -0.92848,0.345888 -1.03073,0.715653 l -6.74265,24.842829 q -0.83396,3.06547 -1.80379,5.128987 -0.94658,2.066499 -1.97978,3.438188 -1.03717,1.398529 -2.11505,2.272225 -1.08185,0.900534 -2.16309,1.637059 -0.71174,0.483064 -1.55114,0.86772 -0.83938,0.384656 -1.65887,0.635123 -0.84277,0.247482 -1.56857,0.345871 -0.74908,0.0954 -1.26091,0.02979 -0.72122,-0.09246 -1.33284,-0.444352 -0.63887,-0.328035 -1.09498,-0.769383 -0.46009,-0.41451 -0.70283,-0.855853 -0.26998,-0.417485 -0.23018,-0.685864 0.0398,-0.268376 0.51491,-0.75443 0.47511,-0.486055 1.08982,-0.95421 0.59143,-0.47114 1.2095,-0.802127 0.5948,-0.333967 0.87398,-0.298175 0.23265,0.02982 0.47203,0.333995 0.2354,0.331007 0.58314,0.703766 0.3205,0.396614 0.81579,0.733592 0.46805,0.360833 1.18928,0.453296 0.55836,0.07158 1.27347,-0.274311 0.71112,-0.319056 1.50645,-1.365716 0.81859,-1.043676 1.67548,-2.984934 0.87616,-1.911436 1.71409,-5.003743 l 7.26188,-26.745328 q 0.0471,-0.158053 -0.0646,-0.363807 -0.11173,-0.205761 -0.52193,-0.477134 -0.38692,-0.268388 -1.12283,-0.581516 -0.73193,-0.339969 -1.95242,-0.742567 l 0.35054,-1.404513 11.23705,1.440599 z"
         style="font-style:italic;font-variant:normal;font-weight:normal;font-stretch:normal;font-family:'Gentium Book Basic';-inkscape-font-specification:'Gentium Book Basic Italic';stroke:#000000;stroke-width:0.81352776;stroke-miterlimit:4;stroke-dasharray:none;stroke-opacity:1"
         id="path5152"
         inkscape:connector-curvature="0" />
      <path
         d="m 253.85683,77.838505 q 0,0.75 -0.25781,1.523437 -0.25781,0.773438 -0.75,1.429688 -0.49219,0.632812 -1.19531,1.03125 -0.70313,0.421875 -1.57032,0.421875 -1.125,0 -1.6875,-0.679688 -0.5625,-0.65625 -0.5625,-1.757812 0,-0.703125 0.28125,-1.453125 0.28125,-0.773438 0.77344,-1.382813 0.51563,-0.632812 1.21875,-1.03125 0.70313,-0.421875 1.52344,-0.421875 1.05469,0 1.64062,0.65625 0.58594,0.632813 0.58594,1.664063 z"
         style="font-style:italic;font-variant:normal;font-weight:normal;font-stretch:normal;font-family:'Gentium Book Basic';-inkscape-font-specification:'Gentium Book Basic Italic';stroke:#000000;stroke-width:0.75590551;stroke-miterlimit:4;stroke-dasharray:none;stroke-opacity:1"
         id="path5154"
         inkscape:connector-curvature="0" />
      <path
         d="m 289.16493,48.757682 q 0.0937,0.117188 -0.1875,0.609375 -0.28125,0.492188 -0.72657,1.101563 -0.44531,0.609375 -0.9375,1.195312 -0.46875,0.585938 -0.77343,0.84375 l -0.9375,-0.234375 q -0.42188,-0.585937 -0.96094,-1.125 -0.53906,-0.539062 -1.21875,-0.914062 -0.67969,-0.398438 -1.5,-0.632813 -0.79688,-0.234375 -1.75781,-0.234375 -0.9375,0 -2.01563,0.398438 -1.05469,0.375 -1.99219,1.101562 -1.47656,1.148438 -2.50781,2.882813 -1.00781,1.734375 -1.66406,3.65625 -0.63281,1.898437 -0.91406,3.796875 -0.28125,1.875 -0.28125,3.351562 0,2.554688 0.67968,4.382813 0.67969,1.804687 1.73438,2.953125 1.05469,1.148437 2.32031,1.6875 1.26563,0.515625 2.4375,0.515625 0.63281,0 1.40625,-0.164063 0.77344,-0.164062 1.71094,-0.585937 0.96094,-0.421875 2.08594,-1.125 1.125,-0.703125 2.48437,-1.757813 0.11719,0.04687 0.21094,0.234375 0.11719,0.164063 0.21094,0.375 0.0937,0.1875 0.16406,0.375 0.0937,0.1875 0.14062,0.257813 -1.59375,1.59375 -3.02343,2.671875 -1.42969,1.054687 -2.76563,1.710937 -1.3125,0.65625 -2.50781,0.914063 -1.19531,0.28125 -2.29688,0.28125 -1.85156,0 -3.53906,-0.75 -1.66406,-0.773438 -2.92969,-2.226563 -1.26562,-1.453125 -2.01562,-3.5625 -0.75,-2.132812 -0.75,-4.851562 0,-2.203125 0.44531,-4.476563 0.44531,-2.296875 1.35938,-4.453125 0.9375,-2.179687 2.36718,-4.125 1.45313,-1.96875 3.42188,-3.539062 1.71094,-1.335938 3.79687,-2.109375 2.10938,-0.773438 4.3125,-0.773438 2.32032,0 4.10157,0.679688 1.78125,0.679687 2.8125,1.664062 z"
         style="font-style:italic;font-variant:normal;font-weight:normal;font-stretch:normal;font-family:'Gentium Book Basic';-inkscape-font-specification:'Gentium Book Basic Italic';stroke:#000000;stroke-width:0.75590551;stroke-miterlimit:4;stroke-dasharray:none;stroke-opacity:1"
         id="path5156"
         inkscape:connector-curvature="0" />
      <path
         d="m 299.58909,63.377309 q 0.0353,-1.016965 0.10502,-2.155349 0.0697,-1.138384 0.14677,-2.206835 0.0746,-1.091762 0.14535,-1.994604 0.0683,-0.926152 0.12163,-1.544399 -0.38128,-0.266558 -0.83007,-0.502508 -0.4279,-0.261693 -0.89514,-0.448588 -0.46966,-0.210207 -0.95047,-0.301427 -0.48325,-0.11453 -0.97278,-0.06345 -1.04899,0.109453 -1.90461,0.717154 -0.8323,0.605268 -1.514,1.524729 -0.66082,0.893717 -1.13171,2.026828 -0.47088,1.133111 -0.7713,2.31913 -0.2771,1.183585 -0.37015,2.3244 -0.0931,1.140817 0.002,2.049944 0.15081,1.445279 0.5031,2.563193 0.34986,1.094601 0.82885,1.845824 0.47897,0.751224 1.05892,1.114877 0.60324,0.361222 1.20932,0.297982 0.48953,-0.05108 1.15136,-0.709253 0.66183,-0.658175 1.35225,-1.719934 0.71372,-1.06419 1.40069,-2.3848 0.70785,-1.346355 1.31516,-2.752913 z m 8.50258,6.959884 q -1.86124,1.584525 -3.2078,2.455534 -1.32083,0.891889 -2.06678,0.969723 -0.4196,0.04378 -0.86838,-0.192168 -0.44879,-0.23595 -0.8996,-0.942983 -0.42749,-0.709466 -0.82012,-1.988124 -0.36932,-1.281089 -0.60425,-3.30671 -0.5175,1.137976 -1.27927,2.419262 -0.74089,1.255543 -1.61536,2.36007 -0.8769,1.081217 -1.83691,1.817634 -0.95758,0.759728 -1.91333,0.859453 -0.79257,0.0827 -1.7246,-0.267782 -0.93203,-0.350481 -1.80102,-1.225964 -0.8481,-0.901226 -1.51905,-2.362925 -0.65005,-1.487445 -0.87869,-3.678674 -0.19215,-1.841566 0.0683,-3.6361 0.25805,-1.817846 0.95273,-3.516297 0.71798,-1.700882 1.83084,-3.230884 1.11041,-1.553312 2.64875,-2.844933 0.58561,-0.485269 1.29021,-0.959388 0.72791,-0.476553 1.51218,-0.864725 0.80757,-0.390606 1.62731,-0.664657 0.81973,-0.274051 1.63561,-0.359181 0.48953,-0.05108 0.97035,0.04014 0.47838,0.06791 0.94317,0.231493 0.4648,0.163586 0.91116,0.376224 0.44391,0.189328 0.84121,0.383521 0.56474,-0.459526 1.20671,-0.856417 0.63952,-0.420201 1.23487,-0.812227 l 0.66892,0.990618 q -0.36224,0.367703 -0.5919,0.650878 -0.22967,0.283177 -0.40298,0.65473 -0.15243,0.345812 -0.24122,0.849937 -0.0888,0.504123 -0.16927,1.313722 -0.17454,1.714872 -0.30002,3.448192 -0.12548,1.733318 -0.20536,3.226232 -0.0566,1.49048 -0.0539,2.644878 1.9e-4,1.131087 0.0537,1.643928 0.24324,2.331095 0.67661,3.322725 0.43338,0.991629 0.96952,0.935686 0.46622,-0.04865 1.06015,-0.228442 0.59149,-0.203105 1.48258,-0.696683 z"
         style="font-style:italic;font-variant:normal;font-weight:normal;font-stretch:normal;font-family:'Gentium Book Basic';-inkscape-font-specification:'Gentium Book Basic Italic';stroke:#000000;stroke-width:0.75590551;stroke-miterlimit:4;stroke-dasharray:none;stroke-opacity:1"
         id="path5158"
         inkscape:connector-curvature="0" />
      <path
         d="m 341.30154,74.580967 q -2.16721,1.286871 -3.89325,2.147536 -1.70261,0.860437 -2.80412,0.871206 -0.67965,0.0066 -1.20259,-0.738281 -0.49927,-0.721715 -0.51163,-1.98728 -0.004,-0.421849 0.12663,-1.430994 0.15397,-1.032804 0.37505,-2.394406 0.22084,-1.385037 0.48696,-2.934588 0.26588,-1.572986 0.48581,-3.051769 0.21993,-1.478783 0.34818,-2.745723 0.15145,-1.290605 0.14389,-2.064005 -0.0131,-1.335875 -0.29983,-1.895591 -0.28674,-0.559723 -0.70859,-0.5556 -0.37498,0.0037 -0.98181,0.267428 -0.58339,0.263528 -1.32763,0.856768 -0.72103,0.569578 -1.5558,1.491843 -0.81133,0.922039 -1.64245,2.219288 -0.48483,0.754775 -0.80537,1.531384 -0.32078,0.753171 -0.54666,1.622608 -0.22613,0.846003 -0.40399,1.832163 -0.15444,0.985932 -0.33023,2.183019 -0.30727,2.135919 -0.38681,3.58989 -0.0561,1.453744 0.0238,2.437386 -0.3265,0.167267 -0.90988,0.430788 -0.55996,0.263301 -1.16678,0.527058 -0.60683,0.263757 -1.16701,0.503619 -0.55996,0.263301 -0.86302,0.430333 l -0.8044,-0.765612 q 0.49223,-2.39555 0.93644,-4.907825 0.44398,-2.535711 0.77377,-4.765606 0.35322,-2.230121 0.54718,-3.966474 0.19374,-1.759791 0.18527,-2.626936 -0.0153,-1.57024 -0.34947,-2.176367 -0.33407,-0.606138 -0.94341,-0.600181 -0.2578,0.0025 -0.81776,0.265821 -0.55995,0.263298 -1.30442,0.833103 -0.72102,0.569576 -1.5558,1.491845 -0.835,0.89883 -1.64267,2.195849 -0.46185,0.707672 -0.7824,1.484281 -0.32078,0.753173 -0.56987,1.646277 -0.24933,0.869664 -0.45039,1.879491 -0.17765,1.009598 -0.37689,2.206915 -0.3307,2.136149 -0.43367,3.590349 -0.10298,1.4542 -0.0465,2.438072 -0.30306,0.167032 -0.86302,0.430331 -0.53651,0.263071 -1.14334,0.526827 -0.5834,0.26353 -1.14357,0.50339 -0.53651,0.26307 -0.81615,0.429876 l -0.85127,-0.765153 q 0.46788,-2.489067 0.88705,-5.165169 0.4426,-2.676329 0.79399,-5.093942 0.35138,-2.417613 0.54352,-4.34146 0.21534,-1.947508 0.20549,-2.955274 -0.005,-0.539036 -0.0786,-0.843021 -0.074,-0.327324 -0.21575,-0.4901 -0.11897,-0.186352 -0.28352,-0.231616 -0.16451,-0.04526 -0.352,-0.04343 -0.23436,0.0023 -0.65531,0.100159 -0.3975,0.09764 -0.79476,0.218713 -0.46736,0.145196 -1.0048,0.314524 l -0.31593,-1.145396 q 0.9802,-0.431477 2.05415,-0.863871 1.07371,-0.45583 2.00774,-0.816542 0.95745,-0.360938 1.70536,-0.579199 0.74767,-0.241698 1.07577,-0.244901 0.35155,-0.0034 0.56362,0.111683 0.23552,0.11489 0.35568,0.418418 0.11988,0.2801 0.14867,0.81889 0.0519,0.515152 0.06,1.335417 0.002,0.234371 -0.0177,0.586138 -0.0199,0.351769 -0.0627,0.774086 -0.0195,0.398643 -0.0621,0.844398 -0.0428,0.422314 -0.0625,0.797524 1.36716,-1.607193 2.55188,-2.696948 1.20792,-1.113425 2.27958,-1.780184 1.07144,-0.690195 2.05301,-0.981055 0.98135,-0.314297 1.94223,-0.323693 0.86715,-0.0085 1.4565,0.33734 0.58912,0.322383 0.9464,0.904854 0.35704,0.559037 0.50476,1.28419 0.17119,0.724917 0.17872,1.498326 0.003,0.351536 -0.017,0.656447 0.003,0.304682 -0.0396,0.750421 1.34464,-1.513217 2.4595,-2.555415 1.13808,-1.065865 2.13966,-1.708499 1.00134,-0.666069 1.88918,-0.956013 0.8876,-0.313379 1.77818,-0.322086 0.67966,-0.0066 1.24442,0.22222 0.58797,0.2052 0.99121,0.693468 0.42667,0.48804 0.66881,1.282586 0.24189,0.771118 0.25293,1.896055 0.009,0.890584 -0.14344,2.110879 -0.12893,1.196631 -0.35001,2.558233 -0.19763,1.36137 -0.44169,2.770074 -0.24428,1.385267 -0.46604,2.676559 -0.19856,1.267627 -0.35229,2.323866 -0.13055,1.032576 -0.12413,1.688794 0.008,0.796837 0.24491,1.075782 0.23689,0.255508 0.6353,0.251614 0.67966,-0.0066 1.31084,-0.176882 0.65438,-0.193908 1.61162,-0.578284 z"
         style="font-style:italic;font-variant:normal;font-weight:normal;font-stretch:normal;font-family:'Gentium Book Basic';-inkscape-font-specification:'Gentium Book Basic Italic';stroke:#000000;stroke-width:0.75590551;stroke-miterlimit:4;stroke-dasharray:none;stroke-opacity:1"
         id="path5160"
         inkscape:connector-curvature="0" />
      <path
         d="m 360.47883,59.359381 q -0.13225,0.642785 -0.43937,1.321378 -0.27944,0.660358 -0.89917,1.346416 -0.615,0.663102 -1.63916,1.337734 -1.01943,0.651676 -2.58104,1.263584 -1.56161,0.611909 -3.75722,1.165156 -2.19088,0.530292 -5.17646,0.96886 -0.11259,1.245042 0.0469,2.330707 0.18244,1.090389 0.54105,1.905956 0.38158,0.820292 0.89816,1.333361 0.51657,0.513069 1.11345,0.635877 0.48209,0.09919 1.19912,0.103149 0.74,0.0087 1.71561,-0.197368 0.99856,-0.201329 2.28809,-0.653862 1.29426,-0.475489 2.89837,-1.294007 0.12357,0.09721 0.20529,0.281523 0.10467,0.189035 0.18167,0.396306 0.077,0.20727 0.1128,0.382135 l 0.0858,0.280864 q -2.2178,1.242606 -3.9043,1.996318 -1.68177,0.730755 -2.99832,1.082014 -1.2936,0.355983 -2.32796,0.382446 -1.01142,0.03119 -1.90672,-0.153024 -0.82644,-0.17004 -1.76975,-0.818766 -0.92507,-0.621046 -1.63144,-1.72352 -0.70165,-1.125431 -1.01447,-2.745143 -0.30809,-1.642667 0.14063,-3.823546 0.36842,-1.790616 1.15412,-3.399664 0.79043,-1.632002 1.9151,-3.027736 1.14762,-1.391011 2.60181,-2.527519 1.48186,-1.15474 3.21966,-2.041468 0.59006,-0.309307 1.35906,-0.557869 0.77371,-0.27152 1.61565,-0.409361 0.84664,-0.160801 1.68792,-0.179136 0.86895,-0.03657 1.64947,0.124022 1.07896,0.221996 1.80687,0.75462 0.73263,0.509666 1.14255,1.192217 0.40992,0.682553 0.5113,1.469123 0.1061,0.763611 -0.0451,1.498223 z m -8.71341,-1.960286 q -0.8304,0.547 -1.66211,1.333012 -0.827,0.763054 -1.57228,1.710421 -0.71759,0.929136 -1.30283,2.029074 -0.55756,1.081703 -0.87205,2.261278 3.0092,-0.55335 4.80037,-1.118027 1.81885,-0.582909 2.81061,-1.21635 0.99647,-0.656399 1.37719,-1.343776 0.38543,-0.710337 0.55075,-1.513818 0.13225,-0.642786 0.066,-1.134981 -0.0615,-0.515153 -0.27558,-0.870268 -0.20936,-0.378073 -0.52536,-0.586662 -0.31602,-0.208591 -0.68333,-0.284165 -0.3673,-0.07557 -1.16332,0.07172 -0.77305,0.152014 -1.54809,0.662546 z"
         style="font-style:italic;font-variant:normal;font-weight:normal;font-stretch:normal;font-family:'Gentium Book Basic';-inkscape-font-specification:'Gentium Book Basic Italic';stroke:#000000;stroke-width:0.75590551;stroke-miterlimit:4;stroke-dasharray:none;stroke-opacity:1"
         id="path5162"
         inkscape:connector-curvature="0" />
      <path
         d="m 380.84459,74.921785 q -1.14776,0.442089 -2.23325,0.79988 -1.06238,0.36182 -1.98515,0.605254 -0.92278,0.243433 -1.65169,0.330362 -0.73295,0.110015 -1.21781,0.02541 -0.80811,-0.141016 -1.16403,-0.964459 -0.33687,-0.796327 -0.11931,-2.043112 0.0725,-0.415594 0.39235,-1.430408 0.34696,-1.033873 0.79247,-2.35984 0.47263,-1.345026 0.99654,-2.847643 0.54701,-1.498589 1.00057,-2.870732 0.47665,-1.368117 0.81261,-2.475283 0.35904,-1.10314 0.44768,-1.611089 0.28203,-1.616202 0.0716,-2.31909 -0.21042,-0.702886 -1.13397,-0.864045 -0.30015,-0.05238 -1.04921,0.149994 -0.72195,0.183311 -1.68904,0.680719 -0.96709,0.497408 -2.08696,1.32503 -1.09277,0.808562 -2.11147,2.010715 -0.86296,0.991411 -1.5254,2.469857 -0.66245,1.478443 -1.44577,3.649545 -0.36601,1.006754 -0.6265,1.817799 -0.26048,0.811046 -0.45868,1.537793 -0.1711,0.707685 -0.30697,1.350143 -0.10878,0.623392 -0.19854,1.273895 -0.32836,0.109244 -0.9268,0.266522 -0.59845,0.15728 -1.24307,0.306501 -0.62153,0.15325 -1.21595,0.28744 -0.57535,0.161308 -0.88062,0.274581 l -0.67515,-0.90294 q 0.59319,-1.49053 1.19551,-3.169798 0.62541,-1.67524 1.20465,-3.358538 0.58327,-1.706386 1.10425,-3.328475 0.54406,-1.618061 0.95144,-2.998263 0.43048,-1.376173 0.70817,-2.422133 0.3048,-1.065019 0.39747,-1.596057 0.0927,-0.531037 0.0758,-0.843275 0.0102,-0.331302 -0.0811,-0.489976 -0.0641,-0.177727 -0.21771,-0.252115 -0.15356,-0.07438 -0.36136,-0.110636 -0.2078,-0.03626 -0.6395,-0.01643 -0.40863,0.02386 -0.82128,0.07081 -0.48595,0.05795 -1.04519,0.126906 l -0.17199,-1.195805 q 1.04224,-0.246377 2.19993,-0.47261 1.16171,-0.249321 2.19187,-0.426432 1.03015,-0.177112 1.80525,-0.255982 0.77913,-0.101958 1.07928,-0.04958 0.32323,0.0564 0.4878,0.20408 0.16859,0.124587 0.2126,0.417766 0.0671,0.297209 0.002,0.809187 -0.0424,0.516012 -0.18748,1.347202 -0.0443,0.253974 -0.13586,0.642458 -0.0875,0.365395 -0.18722,0.800038 -0.0996,0.434662 -0.21833,0.842194 -0.11872,0.407533 -0.19012,0.680574 1.50464,-1.260106 2.95984,-2.100588 1.45521,-0.84048 2.77266,-1.300543 1.34456,-0.479123 2.53231,-0.604942 1.21084,-0.12179 2.24982,0.05951 0.71576,0.1249 1.23362,0.429393 0.54498,0.285433 0.83381,0.811669 0.31596,0.507176 0.36771,1.301332 0.0789,0.775097 -0.11451,1.88335 -0.14102,0.808101 -0.50812,1.957417 -0.34401,1.153344 -0.80857,2.452194 -0.46458,1.298848 -0.99144,2.681994 -0.50377,1.387175 -0.96028,2.639846 -0.4565,1.252673 -0.80346,2.286546 -0.32387,1.037901 -0.43668,1.684382 -0.13698,0.785012 0.0184,1.121426 0.15945,0.313325 0.57504,0.385846 0.53104,0.09267 1.18667,0.01674 0.67871,-0.0719 1.71692,-0.295187 z"
         style="font-style:italic;font-variant:normal;font-weight:normal;font-stretch:normal;font-family:'Gentium Book Basic';-inkscape-font-specification:'Gentium Book Basic Italic';stroke:#000000;stroke-width:0.75590551;stroke-miterlimit:4;stroke-dasharray:none;stroke-opacity:1"
         id="path5164"
         inkscape:connector-curvature="0" />
      <path
         d="m 389.85422,73.819556 q 0.42188,0 1.14844,-0.609375 0.72656,-0.632812 1.61719,-1.757812 0.91406,-1.125 1.875,-2.671875 0.96093,-1.570313 1.82812,-3.445313 0.0937,-1.03125 0.21094,-2.132812 0.14062,-1.125 0.35156,-2.414063 0.0469,-0.398437 0.16406,-0.773437 0.11719,-0.375 0.25782,-0.726563 -0.375,-0.304687 -0.79688,-0.65625 -0.42187,-0.351562 -0.89062,-0.632812 -0.46875,-0.28125 -0.98438,-0.46875 -0.51562,-0.1875 -1.05469,-0.1875 -1.05468,0 -1.96875,0.515625 -0.89062,0.492187 -1.66406,1.335937 -0.75,0.84375 -1.35937,1.921875 -0.58594,1.078125 -1.00782,2.226563 -0.39843,1.148437 -0.63281,2.273437 -0.21094,1.125 -0.21094,2.039063 0,1.453125 0.23438,2.601562 0.25781,1.125 0.67969,1.921875 0.42187,0.796875 0.98437,1.21875 0.58594,0.421875 1.21875,0.421875 z m 13.00781,-18.164062 q -0.79687,0.65625 -1.26562,1.617187 -0.44531,0.960938 -0.65625,2.648438 -0.32813,2.789062 -0.46875,5.0625 -0.14063,2.25 -0.25781,4.21875 -0.11719,1.96875 -0.25782,3.75 -0.14062,1.757812 -0.46875,3.5625 -0.42187,2.4375 -1.57031,4.570312 -1.14844,2.132813 -2.71875,3.726563 -1.57031,1.59375 -3.42187,2.507812 -1.85157,0.9375 -3.67969,0.9375 -1.05469,0 -2.22656,-0.28125 -1.14844,-0.28125 -2.13282,-0.703125 -0.96093,-0.398437 -1.59375,-0.890625 -0.63281,-0.46875 -0.63281,-0.890625 0,-0.398437 0.35156,-0.960937 0.35157,-0.539063 0.79688,-1.054688 0.46875,-0.515625 0.89062,-0.867187 0.44532,-0.351563 0.60938,-0.351563 0.28125,0 0.63281,0.445313 0.35156,0.46875 0.98438,1.007812 0.63281,0.5625 1.64062,1.007813 1.00781,0.46875 2.57813,0.46875 2.08593,0 3.375,-1.828125 1.3125,-1.804688 1.99218,-5.695313 0.21094,-1.195312 0.32813,-2.273437 0.11719,-1.078125 0.1875,-2.0625 0.0937,-1.007813 0.11719,-1.96875 0.0469,-0.960938 0.0937,-1.945313 -0.82032,1.453125 -1.80469,2.90625 -0.98438,1.453125 -2.0625,2.601563 -1.05469,1.148437 -2.15625,1.851562 -1.10156,0.726563 -2.13281,0.726563 -0.77344,0 -1.6875,-0.445313 -0.89063,-0.445312 -1.66407,-1.40625 -0.77343,-0.984375 -1.28906,-2.507812 -0.51562,-1.546875 -0.51562,-3.75 0,-1.851563 0.42187,-3.609375 0.44531,-1.78125 1.28906,-3.375 0.86719,-1.617188 2.15625,-3.023438 1.3125,-1.429687 3.04688,-2.578125 0.65625,-0.421875 1.40625,-0.820312 0.77344,-0.398438 1.59375,-0.703125 0.82031,-0.304688 1.66406,-0.492188 0.84375,-0.1875 1.6875,-0.1875 0.49219,0 0.96094,0.164063 0.49219,0.140625 0.96094,0.375 0.46875,0.210937 0.89062,0.492187 0.44531,0.28125 0.84375,0.539063 0.63281,-0.492188 1.26563,-0.867188 0.65625,-0.398437 1.26562,-0.703125 z"
         style="font-style:italic;font-variant:normal;font-weight:normal;font-stretch:normal;font-family:'Gentium Book Basic';-inkscape-font-specification:'Gentium Book Basic Italic';stroke:#000000;stroke-width:0.75590551;stroke-miterlimit:4;stroke-dasharray:none;stroke-opacity:1"
         id="path5166"
         inkscape:connector-curvature="0" />
      <path
         d="m 414.38044,65.535698 q 0.0191,-1.017397 0.0707,-2.156747 0.0516,-1.13935 0.11163,-2.208892 0.0572,-1.092811 0.11358,-1.996665 0.0536,-0.927122 0.097,-1.546139 -0.38548,-0.260456 -0.83797,-0.489232 -0.43201,-0.25485 -0.90216,-0.434284 -0.47295,-0.202706 -0.95515,-0.286261 -0.48501,-0.106824 -0.97366,-0.04796 -1.04711,0.126135 -1.89296,0.747378 -0.82256,0.618439 -1.48954,1.548633 -0.64651,0.904122 -1.0993,2.044585 -0.45279,1.140461 -0.73429,2.331112 -0.25824,1.187846 -0.33311,2.329997 -0.0749,1.142154 0.0344,2.049656 0.17379,1.442695 0.54382,2.55486 0.36725,1.088895 0.85813,1.832398 0.49087,0.743505 1.07653,1.097882 0.60892,0.351574 1.21391,0.278696 0.48866,-0.05886 1.13993,-0.727489 0.65127,-0.668626 1.3247,-1.741239 0.6967,-1.075415 1.36256,-2.406793 0.68633,-1.35745 1.27118,-2.773496 z m 8.61227,6.823672 q -1.83578,1.613948 -3.16831,2.506279 -1.30646,0.912799 -2.05108,1.002496 -0.41885,0.05045 -0.87133,-0.178322 -0.45248,-0.228777 -0.91449,-0.928545 -0.43873,-0.702572 -0.85166,-1.974819 -0.38967,-1.275049 -0.6568,-3.296673 -0.49933,1.146068 -1.24061,2.439316 -0.72081,1.267177 -1.5776,2.385483 -0.85957,1.095036 -1.80774,1.846641 -0.94536,0.774873 -1.89941,0.889797 -0.79115,0.0953 -1.72864,-0.240299 -0.93749,-0.335601 -1.8203,-1.197142 -0.86234,-0.887613 -1.55647,-2.338449 -0.67365,-1.47691 -0.93713,-3.664222 -0.22144,-1.838274 0.0105,-3.636727 0.22908,-1.821722 0.89664,-3.531015 0.69081,-1.712095 1.77918,-3.259616 1.08555,-1.570789 2.60313,-2.88673 0.57782,-0.494529 1.27478,-0.979803 0.72024,-0.488078 1.49822,-0.888684 0.80126,-0.40341 1.61653,-0.690474 0.81527,-0.287063 1.62969,-0.385169 0.48866,-0.05886 0.97086,0.02469 0.4794,0.06029 0.94674,0.216452 0.46734,0.156167 0.91703,0.361673 0.44687,0.182239 0.84721,0.370084 0.55735,-0.468457 1.19292,-0.875515 0.63276,-0.430327 1.2218,-0.831779 l 0.68459,0.979845 q -0.35633,0.373422 -0.58146,0.660217 -0.22514,0.286796 -0.39251,0.661061 -0.14691,0.348195 -0.22767,0.853669 -0.0807,0.505472 -0.14833,1.316249 -0.14722,1.717434 -0.2451,3.452531 -0.0979,1.735096 -0.15398,3.229092 -0.0328,1.491192 -0.0118,2.645401 0.0182,1.130941 0.0799,1.642865 0.28031,2.326928 0.72941,3.311535 0.4491,0.984605 0.98429,0.920136 0.46539,-0.05606 1.05638,-0.245287 0.58818,-0.212493 1.4713,-0.720192 z"
         style="font-style:italic;font-variant:normal;font-weight:normal;font-stretch:normal;font-family:'Gentium Book Basic';-inkscape-font-specification:'Gentium Book Basic Italic';stroke:#000000;stroke-width:0.75590551;stroke-miterlimit:4;stroke-dasharray:none;stroke-opacity:1"
         id="path5168"
         inkscape:connector-curvature="0" />
    </g>
  </g>
</svg>
