<?xml version="1.0" encoding="utf-8"?>
<!-- Generator: Adobe Illustrator 16.0.3, SVG Export Plug-In . SVG Version: 6.00 Build 0)  -->
<!DOCTYPE svg PUBLIC "-//W3C//DTD SVG 1.1//EN" "http://www.w3.org/Graphics/SVG/1.1/DTD/svg11.dtd">
<svg version="1.1" id="Layer_1" xmlns="http://www.w3.org/2000/svg" xmlns:xlink="http://www.w3.org/1999/xlink" x="0px" y="0px"
	 width="272.5498047px" height="35.8823242px" viewBox="0 0 272.5498047 35.8823242"
	 enable-background="new 0 0 272.5498047 35.8823242" xml:space="preserve">
<g>
	<rect x="0.878418" y="3.3461914" fill="none" width="270.7924805" height="25.5620117"/>
	<path d="M7.6772461,20.472168l-1.9140625,6.3037109H1.5712891L8.7006836,4.5307617h5.1816406l7.2280273,22.2451172h-4.3564453
		l-2.0136719-6.3037109H7.6772461z M14.0473633,17.4023438l-1.7495117-5.4785156
		c-0.4287109-1.3535156-0.7919922-2.871582-1.1220703-4.1586914h-0.065918
		c-0.3300781,1.2871094-0.6601563,2.8383789-1.0561523,4.1586914l-1.7163086,5.4785156H14.0473633z"/>
	<path d="M23.8793945,15.4882813c0-1.8481445-0.0327148-3.3994141-0.1318359-4.7856445h3.5644531l0.1982422,2.4091797h0.0986328
		c0.6933594-1.2539063,2.4423828-2.7724609,5.1157227-2.7724609c2.8056641,0,5.7099609,1.8154297,5.7099609,6.8979492v9.5385742
		H34.375V17.699707c0-2.3105469-0.8579102-4.0595703-3.0693359-4.0595703c-1.6171875,0-2.7397461,1.1547852-3.168457,2.3759766
		c-0.1323242,0.3632813-0.1650391,0.8583984-0.1650391,1.3203125v9.4394531h-4.0927734V15.4882813z"/>
	<path d="M57.5742188,3.3422852v18.9121094c0,1.6499023,0.065918,3.4321289,0.1318359,4.5214844h-3.6303711l-0.1650391-2.5415039
		h-0.065918c-0.9575195,1.7822266-2.9047852,2.9047852-5.2480469,2.9047852c-3.8286133,0-6.8647461-3.2675781-6.8647461-8.2182617
		c-0.0332031-5.3798828,3.3334961-8.581543,7.1948242-8.581543c2.2114258,0,3.7954102,0.9243164,4.5219727,2.1123047h0.065918
		v-9.109375H57.5742188z M53.5146484,17.4023438c0-0.3300781-0.0332031-0.7260742-0.0991211-1.0561523
		c-0.3632813-1.5839844-1.6503906-2.8710938-3.4985352-2.8710938c-2.6074219,0-4.0595703,2.3100586-4.0595703,5.3134766
		c0,2.9375,1.4521484,5.0830078,4.0263672,5.0830078c1.6503906,0,3.1025391-1.1220703,3.4985352-2.871582
		c0.0991211-0.362793,0.1323242-0.7592773,0.1323242-1.1879883V17.4023438z"/>
	<path d="M61.9277344,15.8842773c0-2.1782227-0.0327148-3.7294922-0.1318359-5.1816406h3.53125l0.1323242,3.0693359h0.1318359
		c0.7919922-2.2773438,2.6733398-3.4326172,4.3896484-3.4326172c0.3959961,0,0.6269531,0.0332031,0.9570313,0.0991211v3.8286133
		c-0.3300781-0.065918-0.6928711-0.1318359-1.1879883-0.1318359c-1.9472656,0-3.2675781,1.2539063-3.6303711,3.0693359
		c-0.0664063,0.362793-0.1323242,0.7919922-0.1323242,1.2539063v8.3173828h-4.0595703V15.8842773z"/>
	<path d="M76.25,19.8779297c0.0991211,2.9042969,2.3764648,4.1586914,4.9506836,4.1586914
		c1.8813477,0,3.234375-0.2641602,4.4555664-0.7260742l0.5942383,2.8051758
		c-1.3862305,0.5610352-3.3007813,0.9902344-5.6108398,0.9902344c-5.2148438,0-8.2841797-3.2016602-8.2841797-8.1191406
		c0-4.4555664,2.7060547-8.6474609,7.8549805-8.6474609c5.2148438,0,6.9311523,4.2905273,6.9311523,7.8222656
		c0,0.7592773-0.065918,1.3530273-0.1323242,1.7163086H76.25z M83.3129883,17.0395508
		c0.0332031-1.4853516-0.6269531-3.9277344-3.3334961-3.9277344c-2.5083008,0-3.5644531,2.2773438-3.7294922,3.9277344H83.3129883z"
		/>
	<path d="M92.75,10.7026367l1.6831055,7.2939453c0.3632813,1.7163086,0.7260742,3.465332,1.0234375,5.2148438h0.065918
		c0.3300781-1.7495117,0.8579102-3.5317383,1.3203125-5.1816406l2.0791016-7.3271484h3.3007813l2.0131836,7.1289063
		c0.4951172,1.8813477,0.9238281,3.6303711,1.2871094,5.3798828h0.065918
		c0.2641602-1.7495117,0.6269531-3.4985352,1.0561523-5.3798828l1.7822266-7.1289063h3.9936523l-5.0498047,16.0732422h-3.7626953
		l-1.9140625-6.5351563c-0.4951172-1.6831055-0.8579102-3.2011719-1.2211914-5.1484375h-0.065918
		c-0.3300781,1.9799805-0.7592773,3.5644531-1.2211914,5.1484375l-2.0463867,6.5351563h-3.7954102l-4.7529297-16.0732422H92.75z"/>
	<path d="M127.4326172,4.5307617h1.5844727v15.3803711c0,5.6767578-2.8383789,7.2280273-6.0068359,7.2280273
		c-1.0234375,0-2.1455078-0.2641602-2.706543-0.5283203l0.3300781-1.2543945
		c0.5610352,0.2314453,1.3530273,0.4291992,2.3432617,0.4291992c2.8383789,0,4.4555664-1.2871094,4.4555664-6.237793V4.5307617z"/>
	<path d="M132.7446289,25.6538086c0-0.8583984,0.5610352-1.4853516,1.3530273-1.4853516
		c0.7924805,0,1.3203125,0.6269531,1.3203125,1.4853516c0,0.7919922-0.527832,1.4853516-1.3862305,1.4853516
		C133.2729492,27.1391602,132.7114258,26.4458008,132.7446289,25.6538086z"/>
	<path d="M161.6875,25.9838867c-1.1220703,0.5610352-3.2670898,1.1220703-6.0068359,1.1220703
		c-5.3793945,0-10.5283203-3.4326172-10.5283203-11.3208008c0-6.6005859,4.2578125-11.6176758,11.2875977-11.6176758
		c2.8383789,0,4.4887695,0.6274414,5.1489258,0.9902344L161.09375,6.4780273
		c-1.1220703-0.5610352-2.7397461-0.9570313-4.6206055-0.9570313c-6.0068359,0-9.6704102,3.8945313-9.6704102,10.2973633
		c0,6.0400391,3.4321289,9.9345703,9.40625,9.9345703c1.8813477,0,3.7294922-0.3964844,5.0166016-1.0234375L161.6875,25.9838867z"/>
	<path d="M175.1508789,23.0131836c0,1.2543945,0.0327148,2.5415039,0.230957,3.7626953h-1.4521484l-0.230957-2.2773438h-0.0664063
		c-0.7919922,1.2211914-2.5410156,2.640625-5.0825195,2.640625c-3.2016602,0-4.6538086-2.2446289-4.6538086-4.3569336
		c0-3.6635742,3.2016602-5.875,9.6704102-5.8085938v-0.4291992c0-1.5512695-0.296875-4.6865234-4.0595703-4.6538086
		c-1.3862305,0-2.8383789,0.3632813-3.9936523,1.1884766l-0.4951172-1.1552734
		c1.4521484-0.9570313,3.2348633-1.3535156,4.6538086-1.3535156c4.5878906,0,5.4790039,3.4326172,5.4790039,6.2382813V23.0131836z
		 M173.5664063,18.293457c-3.465332-0.0986328-8.0200195,0.4291992-8.0200195,4.2246094
		c0,2.2773438,1.5180664,3.3007813,3.168457,3.3007813c2.6401367,0,4.1586914-1.6171875,4.6865234-3.168457
		c0.1323242-0.3300781,0.1650391-0.6933594,0.1650391-0.9570313V18.293457z"/>
	<path d="M180.2641602,14.7290039c0-1.4521484-0.0332031-2.5410156-0.1318359-3.7954102h1.4848633l0.0991211,2.8051758h0.065918
		c1.0234375-1.8149414,2.5415039-3.168457,5.1489258-3.168457c2.1782227,0,3.8613281,1.4526367,4.5546875,3.4658203h0.065918
		c0.4291992-0.9570313,1.0234375-1.6503906,1.6171875-2.1455078c1.0234375-0.8579102,2.0795898-1.3203125,3.7626953-1.3203125
		c1.5512695,0,5.1816406,0.8583984,5.1816406,6.8652344v9.340332h-1.5839844v-9.175293
		c0-3.5644531-1.3862305-5.6767578-4.1259766-5.6767578c-1.9799805,0-3.53125,1.4521484-4.1582031,3.1352539
		c-0.1323242,0.4624023-0.2641602,0.9902344-0.2641602,1.5512695v10.1655273h-1.5844727v-9.9013672
		c0-2.871582-1.3530273-4.9506836-3.9272461-4.9506836c-2.1123047,0-3.7958984,1.7163086-4.3896484,3.5644531
		c-0.1323242,0.4291992-0.230957,0.9902344-0.230957,1.5180664v9.7695313h-1.5844727V14.7290039z"/>
	<path d="M207.5214844,18.6899414c0,5.0493164,2.7397461,7.0629883,6.0400391,7.0629883
		c2.3100586,0,3.4985352-0.4624023,4.3896484-0.8911133l0.3959961,1.2211914
		c-0.5942383,0.3295898-2.2114258,1.0229492-4.9838867,1.0229492c-4.5546875,0-7.3930664-3.300293-7.3930664-7.9541016
		c0-5.2807617,3.0366211-8.581543,7.1293945-8.581543c5.1816406,0,6.171875,4.8847656,6.171875,7.1621094
		c0,0.4291992,0,0.6601563-0.0664063,0.9575195H207.5214844z M217.6210938,17.4355469
		c0.0332031-2.2114258-0.8911133-5.5449219-4.7197266-5.5449219c-3.4985352,0-5.0166016,3.1025391-5.3139648,5.5449219H217.6210938z
		"/>
	<path d="M223.2949219,14.7290039c0-1.4521484-0.0327148-2.5410156-0.1318359-3.7954102h1.4848633l0.0991211,2.871582h0.065918
		c0.8583984-1.7822266,2.871582-3.2348633,5.4458008-3.2348633c1.5185547,0,5.5449219,0.7592773,5.5449219,6.7001953v9.5053711
		h-1.5839844v-9.3735352c0-2.8710938-1.1225586-5.4785156-4.3896484-5.4785156
		c-2.2114258,0-4.1259766,1.5839844-4.7529297,3.6303711c-0.0991211,0.3959961-0.1977539,0.9243164-0.1977539,1.4194336v9.8022461
		h-1.5844727V14.7290039z"/>
	<path d="M253.6235352,24.465332c0,4.0595703-0.8579102,6.0732422-2.1782227,7.3271484
		c-1.4521484,1.3862305-3.597168,1.8813477-5.3793945,1.8813477c-1.8154297,0-3.8286133-0.4619141-5.0498047-1.3862305
		l0.5610352-1.2539063c1.1220703,0.7260742,2.6733398,1.3198242,4.7197266,1.3198242
		c3.3334961,0,5.7426758-1.7163086,5.7426758-6.402832V23.706543h-0.065918
		c-0.8251953,1.6171875-2.6733398,3.0693359-5.5117188,3.0693359c-3.9936523,0-6.7993164-3.465332-6.7993164-7.7890625
		c0-5.5117188,3.6308594-8.4165039,7.1293945-8.4165039c3.1352539,0,4.6865234,1.7163086,5.3466797,3.0366211h0.065918
		l0.0991211-2.6733398h1.4521484c-0.0991211,1.1879883-0.1323242,2.4423828-0.1323242,4.0927734V24.465332z M252.0395508,17.0395508
		c0-0.5942383-0.0332031-1.0893555-0.1982422-1.5512695c-0.659668-1.9140625-2.3100586-3.5976563-4.9174805-3.5976563
		c-3.3666992,0-5.6767578,2.7392578-5.6767578,6.9311523c0,3.5644531,1.8813477,6.6337891,5.6108398,6.6337891
		c2.1450195,0,4.0922852-1.2871094,4.9174805-3.5644531c0.1650391-0.527832,0.2641602-1.1220703,0.2641602-1.6831055V17.0395508z"/>
	<path d="M268.8027344,23.0131836c0,1.2543945,0.0332031,2.5415039,0.2304688,3.7626953h-1.4511719l-0.2304688-2.2773438h-0.0664063
		c-0.7929688,1.2211914-2.5410156,2.640625-5.0839844,2.640625c-3.2006836,0-4.652832-2.2446289-4.652832-4.3569336
		c0-3.6635742,3.2016602-5.875,9.6704102-5.8085938v-0.4291992c0-1.5512695-0.296875-4.6865234-4.0585938-4.6538086
		c-1.3867188,0-2.8398438,0.3632813-3.9946289,1.1884766l-0.4951172-1.1552734
		c1.4526367-0.9570313,3.2338867-1.3535156,4.6538086-1.3535156c4.5878906,0,5.4785156,3.4326172,5.4785156,6.2382813V23.0131836z
		 M267.21875,18.293457c-3.4648438-0.0986328-8.0200195,0.4291992-8.0200195,4.2246094
		c0,2.2773438,1.5180664,3.3007813,3.168457,3.3007813c2.640625,0,4.1582031-1.6171875,4.6875-3.168457
		c0.1308594-0.3300781,0.1640625-0.6933594,0.1640625-0.9570313V18.293457z"/>
</g>
<g>
</g>
<g>
</g>
<g>
</g>
<g>
</g>
<g>
</g>
<g>
</g>
</svg>
